<svg xmlns="http://www.w3.org/2000/svg" viewBox="0 0 1032.72 42.74"><defs><linearGradient id="a" x2="240.3" gradientUnits="userSpaceOnUse"><stop offset="0" stop-color="#ff0"/><stop offset="1" stop-color="#f2cd00"/></linearGradient><linearGradient id="b" x1="112.03" x2="105.07" y1="185.69" y2="192.31" gradientUnits="userSpaceOnUse"><stop offset="0" stop-color="#ffcf3e"/><stop offset="1" stop-color="#957400"/></linearGradient></defs><path fill="url(#a)" stroke="#000" stroke-width=".3" d="M3.37 180.94c-1.78 0-3.22 1.44-3.22 3.22v7.56c0 1.78 1.44 3.22 3.22 3.22h233.56c1.78 0 3.22-1.44 3.22-3.22v-7.56c0-1.78-1.44-3.22-3.22-3.22H3.37zm17.6 4.97c1.2 0 2.18.93 2.18 2.04s-.98 2-2.2 2-2.18-.9-2.18-2 1-2.03 2.2-2.03zm198.15 0c1.2 0 2.16.93 2.16 2.04s-.96 2-2.16 2-2.2-.9-2.2-2 1-2.03 2.2-2.03z" stroke-linecap="round" stroke-linejoin="round" transform="rotate(-5 -1741.007 107.998)"/><path fill="none" stroke="url(#b)" stroke-width="1.3" d="M110.73 189a2.18 2 0 1 1-4.36 0 2.18 2 0 1 1 4.36 0z" transform="rotate(-5 -1809.07 -1161.916)"/><path fill="none" stroke="url(#b)" stroke-width="1.3" d="M110.73 189a2.18 2 0 1 1-4.36 0 2.18 2 0 1 1 4.36 0z" transform="rotate(-5 -1709.79 1111.813)"/><path fill="none" stroke="#000" stroke-width=".2" d="M10.65 37.8l.36 4.14M1.82 40.2l.14 1.6M9.8 39.5l.2 2.53M8.8 39.6l.22 2.5M7.8 39.68l.22 2.52M6.8 39.76l.22 2.53M5.77 39.44l.26 2.92M4.8 39.94l.23 2.52M3.82 40.02l.22 2.53M2.82 40.1l.2 2.3"/><g fill="none" stroke="#000" stroke-width=".2"><path d="M20.6 36.93l.38 4.14M11.8 39.33l.2 2.52M19.76 38.63l.22 2.52M18.76 38.72l.22 2.52M17.77 38.8l.22 2.53M16.77 38.9L17 41.4M15.74 38.57L16 41.5M14.78 39.06L15 41.6M13.78 39.15l.22 2.53M12.8 39.24l.2 2.52"/></g><g fill="none" stroke="#000" stroke-width=".2"><path d="M30.58 36.06l.36 4.14M21.76 38.45l.22 2.53M29.73 37.76l.22 2.52M28.73 37.84l.22 2.53M27.73 37.93l.22 2.53M26.74 38.02l.22 2.52M25.7 37.7l.26 2.92M24.74 38.2l.23 2.52M23.75 38.28l.22 2.53M22.75 38.37l.22 2.52"/></g><g fill="none" stroke="#000" stroke-width=".2"><path d="M40.55 35.18l.36 4.14M31.72 37.58l.22 2.53M39.7 36.88l.2 2.53M38.7 36.97l.22 2.53M37.7 37.06l.22 2.52M36.7 37.15l.22 2.52M35.67 36.83l.26 2.9M34.7 37.32l.23 2.53M33.7 37.4l.24 2.53M32.72 37.5l.22 2.52"/></g><g fill="none" stroke="#000" stroke-width=".2"><path d="M50.5 34.3l.38 4.15M41.7 36.7l.2 2.54M49.66 36l.22 2.54M48.66 36.1l.22 2.53M47.67 36.2l.22 2.5M46.67 36.27l.22 2.53M45.64 35.95l.25 2.92M44.68 36.45l.22 2.52M43.68 36.54l.22 2.52M42.68 36.62l.23 2.53"/></g><g fill="none" stroke="#000" stroke-width=".2"><path d="M60.48 33.44l.36 4.14M51.65 35.84l.23 2.52M59.62 35.14l.23 2.53M58.63 35.23l.22 2.52M57.63 35.32l.22 2.52M56.64 35.4l.22 2.53M55.6 35.08l.26 2.92M54.64 35.58l.22 2.52M53.65 35.66l.22 2.53M52.65 35.75l.22 2.53"/></g><g fill="none" stroke="#000" stroke-width=".2"><path d="M70.45 32.57l.36 4.14M61.62 34.97l.22 2.52M69.6 34.27l.2 2.52M68.6 34.36l.22 2.52M67.6 34.44l.22 2.53M66.6 34.53l.22 2.53M65.57 34.2l.26 2.93M64.6 34.7l.23 2.53M63.6 34.8l.23 2.52M62.62 34.88l.22 2.52"/></g><g fill="none" stroke="#000" stroke-width=".2"><path d="M80.4 31.7l.37 4.14M71.6 34.1l.2 2.52M79.56 33.4l.22 2.52M78.56 33.48l.22 2.53M77.56 33.57l.23 2.53M76.57 33.66l.22 2.52M75.54 33.34l.25 2.92M74.58 33.83l.22 2.53M73.58 33.92l.22 2.53M72.58 34l.22 2.53"/></g><g fill="none" stroke="#000" stroke-width=".2"><path d="M90.38 30.82l.36 4.14M81.55 33.22l.22 2.53M89.52 32.53l.22 2.52M88.53 32.6l.22 2.54M87.53 32.7l.22 2.53M86.53 32.8l.23 2.5M85.5 32.47l.26 2.9M84.54 32.96l.22 2.53M83.55 33.05l.22 2.52M82.55 33.14l.22 2.52"/></g><g fill="none" stroke="#000" stroke-width=".2"><path d="M100.34 29.95l.37 4.14M91.52 32.35l.22 2.53M99.5 31.65l.2 2.53M98.5 31.74l.2 2.53M97.5 31.83l.22 2.52M96.5 31.9l.22 2.54M95.47 31.6l.25 2.9M94.5 32.1l.23 2.5M93.5 32.18l.23 2.52M92.52 32.26l.22 2.53"/></g><g fill="none" stroke="#000" stroke-width=".2"><path d="M110.3 29.08l.37 4.14M101.5 31.48l.2 2.52M109.46 30.78l.22 2.53M108.46 30.87l.22 2.52M107.46 30.96l.22 2.52M106.47 31.04l.22 2.53M105.44 30.72l.25 2.92M104.47 31.22l.23 2.52M103.48 31.3l.22 2.53M102.48 31.4l.22 2.52"/></g><g fill="none" stroke="#000" stroke-width=".2"><path d="M120.28 28.2l.36 4.15M111.45 30.6l.22 2.53M119.42 29.9l.22 2.54M118.43 30l.22 2.52M117.43 30.08l.22 2.53M116.43 30.17l.22 2.53M115.4 29.85l.26 2.92M114.44 30.35l.22 2.52M113.44 30.43l.23 2.53M112.45 30.52l.22 2.53"/></g><g fill="none" stroke="#000" stroke-width=".2"><path d="M130.24 27.34l.37 4.14M121.42 29.73l.22 2.53M129.4 29.04l.2 2.52M128.4 29.12l.2 2.53M127.4 29.2l.22 2.54M126.4 29.3l.22 2.52M125.37 28.98l.25 2.92M124.4 29.47l.23 2.53M123.4 29.56l.23 2.53M122.4 29.65l.24 2.52"/></g><g fill="none" stroke="#000" stroke-width=".2"><path d="M140.2 26.46l.37 4.14M131.4 28.86l.2 2.53M139.35 28.17l.23 2.52M138.36 28.25l.22 2.53M137.36 28.34l.22 2.53M136.37 28.43l.22 2.52M135.33 28.1l.26 2.92M134.37 28.6l.22 2.53M133.38 28.7l.22 2.5M132.38 28.78l.22 2.52"/></g><g fill="none" stroke="#000" stroke-width=".2"><path d="M150.18 25.6l.36 4.13M141.35 28l.22 2.52M149.32 27.3l.22 2.52M148.32 27.38l.23 2.53M147.33 27.47l.22 2.52M146.33 27.56l.22 2.52M145.3 27.23l.26 2.92M144.34 27.73l.22 2.52M143.34 27.82l.22 2.52M142.35 27.9l.22 2.53"/></g><g fill="none" stroke="#000" stroke-width=".2"><path d="M160.14 24.72l.36 4.14M151.32 27.12l.22 2.52M159.3 26.42l.2 2.53M158.3 26.5l.2 2.53M157.3 26.6l.22 2.52M156.3 26.68l.22 2.53M155.27 26.36l.25 2.92M154.3 26.86l.23 2.52M153.3 26.94l.23 2.53M152.3 27.03l.23 2.53"/></g><g fill="none" stroke="#000" stroke-width=".2"><path d="M170.1 23.85l.37 4.14M161.28 26.25l.22 2.52M169.25 25.55l.22 2.53M168.26 25.64l.22 2.52M167.26 25.72l.22 2.53M166.26 25.8l.23 2.54M165.23 25.5l.26 2.9M164.27 26l.22 2.5M163.28 26.07l.22 2.53M162.28 26.16l.22 2.53"/></g><g fill="none" stroke="#000" stroke-width=".2"><path d="M180.07 22.98l.37 4.14M171.25 25.37l.22 2.53M179.22 24.68l.22 2.52M178.22 24.76l.22 2.53M177.23 24.85l.22 2.53M176.23 24.94l.22 2.52M175.2 24.62l.25 2.92M174.24 25.1l.22 2.54M173.24 25.2l.22 2.53M172.25 25.3l.22 2.5"/></g><g fill="none" stroke="#000" stroke-width=".2"><path d="M190.04 22.1l.36 4.14M181.22 24.5l.22 2.53M189.2 23.8l.2 2.53M188.2 23.9l.2 2.52M187.2 23.98l.2 2.53M186.2 24.07l.22 2.52M185.17 23.75l.25 2.9M184.2 24.24l.23 2.53M183.2 24.33l.23 2.52M182.2 24.42l.23 2.52"/></g><g fill="none" stroke="#000" stroke-width=".2"><path d="M200 21.23l.37 4.14M191.18 23.63l.22 2.53M199.15 22.93l.22 2.53M198.16 23.02l.22 2.53M197.16 23.1l.22 2.53M196.16 23.2l.22 2.52M195.13 22.87l.26 2.92M194.17 23.37l.22 2.53M193.18 23.46l.22 2.52M192.18 23.54l.22 2.53"/></g><g fill="none" stroke="#000" stroke-width=".2"><path d="M209.97 20.36l.37 4.14M201.15 22.76l.22 2.52M209.12 22.06l.22 2.53M208.12 22.15l.22 2.52M207.13 22.24l.22 2.52M206.13 22.32l.22 2.53M205.1 22l.25 2.92M204.14 22.5l.22 2.52M203.14 22.58l.22 2.53M202.15 22.67l.22 2.53"/></g><g fill="none" stroke="#000" stroke-width=".2"><path d="M219.94 19.5l.36 4.13M211.12 21.9l.22 2.5M219.08 21.2l.23 2.52M218.1 21.28l.2 2.52M217.1 21.36l.2 2.53M216.1 21.45l.22 2.53M215.06 21.13l.26 2.92M214.1 21.63l.22 2.52M213.1 21.7l.23 2.54M212.1 21.8l.23 2.53"/></g><g fill="none" stroke="#000" stroke-width=".2"><path d="M229.9 18.62l.37 4.14M221.08 21.02l.22 2.52M229.05 20.32l.22 2.52M228.05 20.4l.23 2.53M227.06 20.5l.22 2.52M226.06 20.58l.22 2.53M225.03 20.26l.26 2.92M224.07 20.75l.22 2.53M223.07 20.84l.22 2.53M222.08 20.93l.22 2.52"/></g><g fill="none" stroke="#000" stroke-width=".2"><path d="M231.05 20.14l.22 2.53M239.02 19.45l.13 1.5M238.02 19.53l.2 2.3M237.03 19.62l.22 2.53M236.03 19.7l.22 2.53M235 19.4l.25 2.9M234.04 19.88l.22 2.53M233.04 19.97l.22 2.52M232.04 20.06l.23 2.52"/></g><g fill="none" stroke="#000" stroke-width=".2"><path d="M10.15 32.13L9.8 28M1.04 31.3L.9 29.7M9 30.6l-.2-2.52M8.02 30.7l-.22-2.54M7.02 30.78l-.22-2.53M6.03 30.86l-.23-2.52M5.07 31.36l-.26-2.92M4.03 31.04L3.8 28.5M3.04 31.13l-.22-2.53M2.04 31.2l-.2-2.27M20.12 31.26l-.36-4.14M11 30.43l-.2-2.53M18.98 29.73l-.22-2.52M17.98 29.82l-.22-2.53M17 29.9l-.23-2.52M16 30l-.23-2.53M15.03 30.5l-.25-2.93M14 30.17l-.22-2.53M13 30.25l-.22-2.52M12 30.34l-.2-2.52M30.08 30.4l-.36-4.15M20.98 29.56l-.22-2.53M28.95 28.86l-.22-2.53M27.95 28.95l-.22-2.53M26.95 29.03l-.22-2.52M25.96 29.12l-.22-2.52M25 29.62l-.26-2.92M23.97 29.3l-.22-2.53M22.97 29.38l-.22-2.52M21.97 29.47l-.22-2.53M40.05 29.52l-.36-4.15M30.94 28.68l-.22-2.52M38.9 28l-.2-2.54M37.92 28.07l-.22-2.52M36.92 28.16l-.22-2.52M35.92 28.25l-.22-2.53M34.96 28.74l-.25-2.9M33.93 28.42l-.22-2.52M32.94 28.5L32.72 26M31.94 28.6l-.22-2.53"/><g><path d="M50.02 28.64l-.37-4.14M40.9 27.8l-.2-2.5M48.88 27.12l-.22-2.53M47.88 27.2l-.22-2.52M46.9 27.3l-.23-2.54M45.9 27.38l-.23-2.53M44.93 27.87l-.25-2.92M43.9 27.55l-.22-2.52M42.9 27.64l-.22-2.53M41.9 27.73l-.2-2.53"/></g><g><path d="M59.98 27.77l-.36-4.14M50.88 26.94l-.22-2.52M58.85 26.24l-.23-2.52M57.85 26.33l-.22-2.52M56.85 26.42l-.22-2.53M55.86 26.5L55.64 24M54.9 27l-.26-2.92M53.86 26.68l-.22-2.53M52.87 26.77l-.22-2.53M51.87 26.85l-.22-2.52"/></g><g><path d="M69.95 26.9l-.36-4.14M60.84 26.07l-.22-2.53M68.8 25.37l-.2-2.52M67.82 25.46l-.22-2.53M66.82 25.55l-.22-2.53M65.82 25.63l-.22-2.52M64.86 26.13l-.25-2.92M63.83 25.8l-.22-2.52M62.84 25.9l-.23-2.53M61.84 25.98l-.22-2.52"/></g><g><path d="M79.92 26.03l-.37-4.14M70.8 25.2l-.2-2.53M78.78 24.5l-.22-2.53M77.78 24.6l-.22-2.54M76.8 24.67l-.23-2.52M75.8 24.76l-.23-2.52M74.83 25.26l-.26-2.92M73.8 24.94l-.22-2.53M72.8 25.02l-.22-2.52M71.8 25.1l-.22-2.52"/></g><g><path d="M89.88 25.16l-.36-4.14M80.78 24.33l-.23-2.53M88.74 23.63l-.22-2.53M87.75 23.72l-.22-2.53M86.75 23.8l-.22-2.52M85.76 23.9l-.22-2.54M84.8 24.38l-.26-2.9M83.76 24.06l-.22-2.52M82.77 24.15l-.22-2.52M81.77 24.24l-.22-2.53"/></g><g><path d="M99.85 24.28l-.36-4.14M90.74 23.45l-.22-2.52M98.7 22.76l-.2-2.53M97.7 22.84l-.2-2.52M96.72 22.93l-.22-2.53M95.72 23.02l-.22-2.53M94.76 23.5l-.25-2.9M93.73 23.2l-.22-2.53M92.73 23.28l-.22-2.53M91.74 23.37l-.22-2.53"/></g><g><path d="M109.8 23.4l-.35-4.13M100.7 22.58l-.2-2.52M108.68 21.88l-.22-2.52M107.68 21.97l-.22-2.52M106.68 22.06l-.22-2.53M105.7 22.15l-.23-2.53M104.73 22.64l-.26-2.92M103.7 22.32l-.22-2.53M102.7 22.4l-.22-2.52M101.7 22.5l-.22-2.53"/></g><g><path d="M119.78 22.54l-.36-4.14M110.67 21.7l-.22-2.52M118.64 21l-.22-2.5M117.65 21.1l-.22-2.53M116.65 21.2l-.22-2.54M115.66 21.27l-.23-2.52M114.7 21.77l-.26-2.92M113.66 21.45l-.22-2.53M112.67 21.54l-.22-2.53M111.67 21.62l-.22-2.52"/></g><g><path d="M129.75 21.67l-.36-4.14M120.64 20.84l-.22-2.53M128.6 20.14l-.2-2.53M127.6 20.23l-.2-2.53M126.62 20.3l-.22-2.5M125.62 20.4l-.22-2.52M124.66 20.9l-.25-2.92M123.63 20.58l-.22-2.53M122.63 20.66l-.22-2.52M121.64 20.75l-.22-2.53"/></g><g><path d="M139.7 20.8l-.35-4.14M130.6 19.97l-.2-2.53M138.58 19.27l-.22-2.53M137.58 19.36l-.22-2.53M136.58 19.44l-.22-2.52M135.6 19.53l-.23-2.53M134.63 20.02l-.26-2.9M133.6 19.7l-.23-2.52M132.6 19.8l-.22-2.53M131.6 19.88l-.22-2.53"/></g><g><path d="M149.68 19.92l-.36-4.14M140.57 19.1l-.22-2.53M148.54 18.4l-.22-2.53M147.55 18.48l-.22-2.52M146.55 18.57l-.22-2.52M145.55 18.66l-.22-2.53M144.6 19.15l-.26-2.92M143.56 18.83l-.22-2.52M142.57 18.92l-.23-2.53M141.57 19l-.22-2.52"/></g><g><path d="M159.65 19.05l-.37-4.14M150.54 18.22l-.22-2.52M158.5 17.52l-.2-2.52M157.5 17.6l-.2-2.5M156.52 17.7l-.22-2.53M155.52 17.8l-.22-2.54M154.56 18.28l-.26-2.92M153.53 17.96l-.22-2.53M152.53 18.05l-.22-2.53M151.54 18.13l-.23-2.52"/></g><g><path d="M169.6 18.18l-.35-4.14M160.5 17.35l-.22-2.53M168.48 16.65l-.23-2.52M167.48 16.74l-.22-2.53M166.48 16.83l-.22-2.53M165.5 16.9l-.23-2.5M164.53 17.4l-.26-2.9M163.5 17.1l-.23-2.54M162.5 17.18l-.22-2.53M161.5 17.26l-.22-2.52"/></g><g><path d="M179.58 17.3l-.36-4.13M170.47 16.48l-.22-2.53M178.44 15.78l-.22-2.53M177.45 15.87l-.23-2.53M176.45 15.95l-.22-2.52M175.45 16.04l-.22-2.52M174.5 16.54l-.26-2.92M173.46 16.22l-.22-2.53M172.46 16.3l-.22-2.52M171.47 16.4l-.22-2.54"/></g><g><path d="M189.55 16.44l-.37-4.14M180.44 15.6l-.22-2.52M188.4 14.9l-.2-2.52M187.4 15l-.2-2.53M186.42 15.08l-.23-2.52M185.42 15.17l-.22-2.53M184.46 15.66l-.26-2.9M183.43 15.34l-.22-2.52M182.43 15.43l-.22-2.52M181.43 15.52L181.2 13"/></g><g><path d="M199.5 15.56l-.35-4.14M190.4 14.73l-.22-2.52M198.37 14.04l-.22-2.53M197.38 14.12l-.22-2.52M196.38 14.2l-.22-2.5M195.4 14.3l-.24-2.53M194.42 14.8l-.25-2.92M193.4 14.47l-.23-2.52M192.4 14.56l-.22-2.53M191.4 14.65l-.22-2.53"/></g><g><path d="M209.48 14.7l-.36-4.15M200.37 13.86l-.22-2.52M208.34 13.16l-.22-2.52M207.34 13.25l-.22-2.52M206.35 13.34l-.22-2.53M205.35 13.43l-.22-2.53M204.4 13.92l-.26-2.92M203.36 13.6l-.22-2.53M202.36 13.7l-.22-2.54M201.37 13.77l-.22-2.52"/></g><g><path d="M219.44 13.82l-.36-4.14M210.34 13l-.22-2.54M218.3 12.3l-.2-2.53M217.3 12.38l-.2-2.53M216.3 12.47l-.2-2.53M215.32 12.55l-.22-2.52M214.36 13.05l-.26-2.92M213.33 12.73l-.23-2.53M212.33 12.82l-.22-2.53M211.33 12.9l-.22-2.52"/></g><g><path d="M229.4 12.95l-.35-4.14M220.3 12.12l-.22-2.53M228.27 11.42l-.22-2.52M227.28 11.5L227.06 9M226.28 11.6l-.22-2.53M225.28 11.68l-.22-2.52M224.32 12.18l-.25-2.92M223.3 11.86l-.23-2.53M222.3 11.94l-.23-2.52M221.3 12.03l-.22-2.52"/></g><g><path d="M230.27 11.25l-.22-2.53M238.24 10.55l-.13-1.5M237.24 10.64l-.2-2.3M236.25 10.72l-.22-2.52M235.25 10.8l-.22-2.52M234.3 11.3l-.27-2.9M233.26 10.98l-.22-2.52M232.26 11.07l-.22-2.52M231.27 11.16l-.23-2.53"/></g></g><g><path fill="url(#a)" stroke="#000" stroke-width=".3" d="M3.37 180.94c-1.78 0-3.22 1.44-3.22 3.22v7.56c0 1.78 1.44 3.22 3.22 3.22h233.56c1.78 0 3.22-1.44 3.22-3.22v-7.56c0-1.78-1.44-3.22-3.22-3.22H3.37zm17.6 4.97c1.2 0 2.18.93 2.18 2.04s-.98 2-2.2 2-2.18-.9-2.18-2 1-2.03 2.2-2.03zm198.15 0c1.2 0 2.16.93 2.16 2.04s-.96 2-2.16 2-2.2-.9-2.2-2 1-2.03 2.2-2.03z" stroke-linecap="round" stroke-linejoin="round" transform="rotate(5 2081.093 2372.473)"/><path fill="none" stroke="url(#b)" stroke-width="1.3" d="M110.73 189a2.18 2 0 1 1-4.36 0 2.18 2 0 1 1 4.36 0z" transform="rotate(5 2038.207 3643.486)"/><path fill="none" stroke="url(#b)" stroke-width="1.3" d="M110.73 189a2.18 2 0 1 1-4.36 0 2.18 2 0 1 1 4.36 0z" transform="rotate(5 2137.49 1369.757)"/><path fill="none" stroke="#000" stroke-width=".2" d="M208.13 18.54l-.36 4.14M199.02 19.37l-.14 1.6M207 20.06l-.23 2.53M206 19.98l-.22 2.52M205 19.9l-.22 2.52M204 19.8l-.22 2.53M203.05 19.3l-.26 2.93M202 19.63l-.2 2.52M201.02 19.54l-.22 2.53M200.02 19.45l-.2 2.3"/><g fill="none" stroke="#000" stroke-width=".2"><path d="M218.1 19.4l-.36 4.15M209 20.24l-.23 2.52M216.96 20.93l-.22 2.53M215.96 20.85l-.22 2.52M214.97 20.76l-.22 2.53M213.97 20.67l-.22 2.53M213 20.18l-.24 2.92M211.98 20.5l-.22 2.52M210.98 20.4l-.22 2.54M210 20.32l-.23 2.53"/></g><g fill="none" stroke="#000" stroke-width=".2"><path d="M228.06 20.28l-.36 4.14M218.96 21.1l-.22 2.54M226.93 21.8l-.22 2.53M225.93 21.72l-.22 2.53M224.93 21.63l-.22 2.53M223.94 21.55l-.22 2.52M222.98 21.05l-.26 2.92M221.95 21.37l-.23 2.53M220.95 21.28l-.22 2.53M219.95 21.2l-.22 2.52"/></g><g fill="none" stroke="#000" stroke-width=".2"><path d="M238.03 21.15l-.36 4.14M228.92 21.98l-.22 2.53M236.9 22.68l-.23 2.52M235.9 22.6l-.22 2.52M234.9 22.5l-.22 2.53M233.9 22.42l-.22 2.52M232.94 21.92l-.25 2.92M231.9 22.24l-.2 2.53M230.92 22.16l-.22 2.52M229.92 22.07l-.22 2.52"/></g><g fill="none" stroke="#000" stroke-width=".2"><path d="M248 22.02l-.37 4.14M238.9 22.85l-.23 2.53M246.86 23.55l-.22 2.53M245.86 23.46l-.22 2.53M244.87 23.38l-.22 2.52M243.87 23.3l-.22 2.5M242.9 22.8l-.24 2.9M241.88 23.1l-.22 2.54M240.88 23.03l-.22 2.52M239.9 22.94l-.23 2.53"/></g><g fill="none" stroke="#000" stroke-width=".2"><path d="M257.96 22.9l-.36 4.14M248.86 23.73l-.22 2.52M256.83 24.42l-.23 2.53M255.83 24.34l-.22 2.52M254.83 24.25l-.22 2.52M253.84 24.16l-.22 2.53M252.88 23.67l-.26 2.9M251.84 24l-.22 2.5M250.85 23.9l-.22 2.53M249.85 23.8l-.22 2.54"/></g><g fill="none" stroke="#000" stroke-width=".2"><path d="M267.93 23.77l-.36 4.14M258.82 24.6l-.22 2.52M266.8 25.3l-.23 2.52M265.8 25.2l-.23 2.53M264.8 25.12l-.22 2.53M263.8 25.03l-.22 2.53M262.84 24.54l-.25 2.92M261.8 24.86l-.2 2.52M260.8 24.77l-.2 2.53M259.82 24.68l-.22 2.53"/></g><g fill="none" stroke="#000" stroke-width=".2"><path d="M277.9 24.64l-.37 4.14M268.8 25.47l-.23 2.52M276.76 26.17l-.22 2.52M275.76 26.08l-.22 2.52M274.77 26l-.23 2.52M273.77 25.9l-.22 2.53M272.8 25.4l-.25 2.93M271.78 25.73l-.22 2.53M270.78 25.64l-.22 2.53M269.78 25.56l-.22 2.52"/></g><g fill="none" stroke="#000" stroke-width=".2"><path d="M287.86 25.5l-.36 4.15M278.76 26.34l-.23 2.53M286.72 27.04l-.22 2.52M285.73 26.95l-.22 2.53M284.73 26.86l-.22 2.53M283.74 26.78l-.22 2.52M282.78 26.28l-.26 2.92M281.74 26.6l-.22 2.53M280.75 26.52l-.22 2.52M279.75 26.43l-.22 2.52"/></g><g fill="none" stroke="#000" stroke-width=".2"><path d="M297.83 26.38l-.36 4.14M288.72 27.2l-.22 2.54M296.7 27.9l-.23 2.54M295.7 27.82l-.23 2.53M294.7 27.74l-.22 2.52M293.7 27.65l-.22 2.52M292.74 27.15l-.25 2.92M291.7 27.47l-.2 2.53M290.7 27.4l-.2 2.5M289.72 27.3l-.22 2.53"/></g><g fill="none" stroke="#000" stroke-width=".2"><path d="M307.8 27.25l-.37 4.14M298.7 28.08l-.23 2.53M306.66 28.78l-.22 2.53M305.66 28.7l-.22 2.52M304.66 28.6l-.22 2.53M303.67 28.52l-.22 2.53M302.7 28.03l-.25 2.9M301.68 28.35l-.22 2.52M300.68 28.26l-.22 2.52M299.68 28.17l-.22 2.53"/></g><g fill="none" stroke="#000" stroke-width=".2"><path d="M317.76 28.13l-.36 4.14M308.65 28.96l-.22 2.52M316.62 29.65l-.22 2.53M315.63 29.57l-.22 2.52M314.63 29.48L314.4 32M313.63 29.4l-.22 2.52M312.67 28.9l-.25 2.92M311.64 29.22l-.22 2.52M310.65 29.13l-.22 2.53M309.65 29.04l-.22 2.53"/></g><g fill="none" stroke="#000" stroke-width=".2"><path d="M327.73 29l-.37 4.14M318.62 29.83l-.22 2.52M326.6 30.53l-.23 2.52M325.6 30.44l-.23 2.52M324.6 30.35l-.22 2.53M323.6 30.26l-.22 2.53M322.64 29.77l-.25 2.92M321.6 30.1l-.2 2.52M320.6 30l-.2 2.53M319.62 29.92l-.22 2.52"/></g><g fill="none" stroke="#000" stroke-width=".2"><path d="M337.7 29.87l-.37 4.14M328.6 30.7l-.23 2.53M336.56 31.4l-.22 2.52M335.56 31.3l-.22 2.54M334.56 31.22l-.22 2.53M333.57 31.14l-.22 2.52M332.6 30.64l-.25 2.92M331.58 30.96l-.23 2.53M330.58 30.88l-.22 2.52M329.58 30.8l-.22 2.5"/></g><g fill="none" stroke="#000" stroke-width=".2"><path d="M347.66 30.74l-.36 4.14M338.55 31.57l-.22 2.53M346.52 32.27l-.22 2.53M345.53 32.18l-.22 2.53M344.53 32.1l-.22 2.52M343.53 32l-.22 2.53M342.57 31.5l-.25 2.93M341.54 31.83l-.22 2.53M340.55 31.75l-.23 2.52M339.55 31.66l-.22 2.53"/></g><g fill="none" stroke="#000" stroke-width=".2"><path d="M357.63 31.6l-.37 4.15M348.52 32.44l-.22 2.53M356.5 33.14l-.23 2.53M355.5 33.05l-.23 2.53M354.5 32.97l-.22 2.52M353.5 32.88l-.22 2.53M352.54 32.4l-.26 2.9M351.5 32.7l-.2 2.53M350.5 32.62l-.2 2.52M349.52 32.53l-.23 2.53"/></g><g fill="none" stroke="#000" stroke-width=".2"><path d="M367.6 32.5l-.37 4.13M358.5 33.32l-.24 2.52M366.45 34l-.22 2.54M365.46 33.93l-.22 2.52M364.46 33.84l-.22 2.53M363.47 33.75l-.22 2.53M362.5 33.26l-.25 2.92M361.47 33.58l-.22 2.52M360.48 33.5l-.22 2.52M359.48 33.4l-.22 2.53"/></g><g fill="none" stroke="#000" stroke-width=".2"><path d="M377.56 33.36l-.36 4.14M368.45 34.2l-.22 2.5M376.42 34.9l-.22 2.5M375.42 34.8l-.22 2.52M374.43 34.7l-.22 2.54M373.43 34.62l-.22 2.53M372.47 34.13l-.25 2.92M371.44 34.45l-.22 2.53M370.44 34.36l-.22 2.53M369.45 34.28l-.22 2.52"/></g><g fill="none" stroke="#000" stroke-width=".2"><path d="M387.52 34.23l-.36 4.14M378.42 35.06l-.22 2.53M386.4 35.76l-.23 2.52M385.4 35.67l-.23 2.53M384.4 35.58l-.23 2.53M383.4 35.5l-.22 2.52M382.44 35l-.26 2.92M381.4 35.32l-.2 2.53M380.4 35.23l-.2 2.53M379.4 35.15l-.2 2.52"/></g><g fill="none" stroke="#000" stroke-width=".2"><path d="M397.5 35.1l-.37 4.14M388.38 35.93l-.22 2.53M396.35 36.63l-.22 2.53M395.36 36.54l-.22 2.53M394.36 36.46l-.22 2.52M393.37 36.37l-.23 2.52M392.4 35.87l-.25 2.92M391.37 36.2l-.22 2.52M390.38 36.1l-.22 2.53M389.38 36.02l-.22 2.53"/></g><g fill="none" stroke="#000" stroke-width=".2"><path d="M407.46 35.97l-.36 4.14M398.35 36.8l-.22 2.53M406.32 37.5l-.22 2.53M405.32 37.4l-.22 2.54M404.33 37.33l-.22 2.52M403.33 37.24l-.22 2.53M402.37 36.75l-.25 2.9M401.34 37.07l-.22 2.52M400.34 36.98l-.22 2.52M399.35 36.9l-.22 2.52"/></g><g fill="none" stroke="#000" stroke-width=".2"><path d="M417.42 36.85l-.36 4.14M408.32 37.68l-.22 2.52M416.3 38.37l-.23 2.53M415.3 38.3l-.23 2.5M414.3 38.2l-.23 2.52M413.3 38.1l-.22 2.54M412.34 37.62l-.26 2.92M411.3 37.94l-.22 2.52M410.3 37.85l-.2 2.53M409.3 37.76l-.2 2.53"/></g><g fill="none" stroke="#000" stroke-width=".2"><path d="M427.4 37.72l-.37 4.14M418.28 38.55l-.22 2.52M426.25 39.25l-.22 2.52M425.26 39.16l-.22 2.52M424.26 39.07l-.22 2.53M423.26 38.98l-.22 2.53M422.3 38.5l-.25 2.9M421.27 38.8l-.22 2.54M420.28 38.72l-.23 2.53M419.28 38.64l-.22 2.52"/></g><g fill="none" stroke="#000" stroke-width=".2"><path d="M428.25 39.42l-.22 2.53M436.22 40.12l-.13 1.5M435.22 40.03l-.2 2.28M434.23 39.94l-.22 2.53M433.23 39.86l-.22 2.52M432.27 39.36l-.26 2.92M431.24 39.68l-.22 2.53M430.24 39.6l-.22 2.52M429.25 39.5l-.23 2.53"/></g><g fill="none" stroke="#000" stroke-width=".2"><path d="M208.63 12.87l.36-4.14M199.8 10.47l.14-1.6M207.77 11.17l.22-2.53M206.78 11.08l.22-2.53M205.78 11l.22-2.53M204.78 10.9l.23-2.52M203.75 11.22l.26-2.9M202.8 10.73l.2-2.53M201.8 10.64l.22-2.52M200.8 10.56l.2-2.3M218.6 13.74l.36-4.14M209.77 11.34L210 8.8M217.74 12.04l.22-2.53M216.74 11.95l.22-2.53M215.75 11.86l.22-2.52M214.75 11.78l.22-2.53M213.72 12.1l.25-2.92M212.76 11.6l.22-2.52M211.76 11.5l.22-2.5M210.77 11.43L211 8.9M228.56 14.6l.36-4.13M219.74 12.2l.22-2.5M227.7 12.9l.23-2.52M226.7 12.82l.23-2.52M225.7 12.74l.23-2.53M224.72 12.65l.22-2.53M223.68 12.97l.26-2.92M222.72 12.47l.23-2.52M221.73 12.4l.22-2.54M220.73 12.3l.22-2.53M238.53 15.48l.36-4.14M229.7 13.08l.22-2.52M237.67 13.78l.22-2.52M236.68 13.7l.22-2.53M235.68 13.6l.22-2.52M234.68 13.52l.22-2.53M233.65 13.84l.26-2.92M232.7 13.35l.2-2.53M231.7 13.26l.22-2.53M230.7 13.17l.22-2.52"/><g><path d="M248.5 16.36l.36-4.15M239.67 13.96l.22-2.53M247.64 14.65l.22-2.52M246.64 14.57l.22-2.53M245.65 14.48l.22-2.53M244.65 14.4l.22-2.53M243.62 14.7l.25-2.9M242.66 14.22l.22-2.53M241.66 14.13l.22-2.53M240.66 14.04l.23-2.52"/></g><g><path d="M258.46 17.23l.36-4.14M249.63 14.83l.23-2.53M257.6 15.53l.23-2.53M256.6 15.44l.23-2.53M255.6 15.35l.23-2.52M254.62 15.26l.22-2.52M253.58 15.58l.26-2.9M252.62 15.1l.22-2.54M251.63 15l.22-2.52M250.63 14.92l.22-2.53"/></g><g><path d="M268.43 18.1l.36-4.14M259.6 15.7l.22-2.53M267.57 16.4l.22-2.53M266.57 16.3l.23-2.52M265.58 16.22l.22-2.52M264.58 16.14l.22-2.53M263.55 16.46l.26-2.92M262.6 15.96l.2-2.52M261.6 15.87l.2-2.52M260.6 15.8l.22-2.54"/></g><g><path d="M278.4 18.97l.35-4.14M269.57 16.57l.22-2.52M277.54 17.27l.22-2.53M276.54 17.18l.22-2.52M275.54 17.1l.23-2.53M274.55 17l.22-2.52M273.52 17.33l.25-2.92M272.56 16.83l.22-2.52M271.56 16.75l.22-2.53M270.56 16.66l.22-2.53"/></g><g><path d="M288.36 19.84l.36-4.14M279.53 17.44l.22-2.52M287.5 18.14l.22-2.52M286.5 18.05l.23-2.52M285.5 17.97l.23-2.53M284.5 17.88l.24-2.53M283.48 18.2l.26-2.92M282.52 17.7l.22-2.52M281.53 17.62l.22-2.53M280.53 17.53l.22-2.52"/></g><g><path d="M298.32 20.7l.37-4.13M289.5 18.32l.22-2.53M297.47 19l.22-2.5M296.47 18.93l.22-2.53M295.48 18.84l.22-2.53M294.48 18.75l.22-2.52M293.45 19.07l.25-2.92M292.5 18.58l.2-2.53M291.5 18.5l.2-2.54M290.5 18.4l.22-2.52"/></g><g><path d="M308.3 21.6l.35-4.15M299.47 19.2l.22-2.54M307.44 19.88l.22-2.52M306.44 19.8l.22-2.53M305.44 19.7l.22-2.52M304.45 19.62l.22-2.52M303.42 19.94l.25-2.9M302.45 19.45l.23-2.53M301.46 19.36l.22-2.52M300.46 19.27l.22-2.52"/></g><g><path d="M318.26 22.46l.36-4.14M309.43 20.06l.22-2.53M317.4 20.76l.22-2.53M316.4 20.67l.23-2.53M315.4 20.58l.23-2.52M314.4 20.5l.23-2.53M313.38 20.82l.26-2.92M312.42 20.32l.22-2.52M311.42 20.23l.23-2.52M310.43 20.15l.22-2.53"/></g><g><path d="M328.22 23.33l.37-4.14M319.4 20.93l.22-2.52M327.37 21.63l.22-2.53M326.37 21.54l.22-2.52M325.38 21.45l.22-2.52M324.38 21.37l.22-2.53M323.35 21.7l.25-2.93M322.4 21.2l.2-2.53M321.4 21.1l.2-2.52M320.4 21.02l.22-2.53"/></g><g><path d="M338.2 24.2l.35-4.14M329.36 21.8l.23-2.52M337.33 22.5l.23-2.52M336.34 22.4l.22-2.5M335.34 22.33l.22-2.53M334.35 22.24l.22-2.53M333.3 22.56l.27-2.92M332.35 22.06l.22-2.52M331.36 21.98l.22-2.53M330.36 21.9l.22-2.54"/></g><g><path d="M348.16 25.07l.36-4.14M339.33 22.68l.22-2.53M347.3 23.37l.22-2.52M346.3 23.3l.23-2.54M345.3 23.2l.23-2.53M344.3 23.1l.23-2.5M343.28 23.43l.26-2.92M342.32 22.94l.22-2.53M341.32 22.85l.22-2.53M340.33 22.76l.22-2.52"/></g><g><path d="M358.12 25.95l.36-4.14M349.3 23.55l.22-2.53M357.27 24.24l.22-2.52M356.27 24.16l.22-2.53M355.27 24.07l.23-2.53M354.28 23.98l.22-2.52M353.25 24.3l.25-2.9M352.3 23.8l.2-2.52M351.3 23.72l.2-2.52M350.3 23.63l.2-2.52"/></g><g><path d="M368.1 26.82l.35-4.14M359.26 24.42l.22-2.53M367.23 25.12l.22-2.53M366.24 25.03l.22-2.53M365.24 24.94l.22-2.52M364.24 24.86l.23-2.53M363.2 25.18l.27-2.92M362.25 24.68l.22-2.52M361.26 24.6l.22-2.53M360.26 24.5l.22-2.52"/></g><g><path d="M378.05 27.7l.37-4.15M369.23 25.3l.22-2.53M377.2 26l.22-2.54M376.2 25.9l.22-2.52M375.2 25.8l.23-2.5M374.2 25.73l.23-2.53M373.18 26.05l.25-2.92M372.22 25.55l.22-2.52M371.22 25.47l.22-2.53M370.23 25.38l.22-2.53"/></g><g><path d="M388.02 28.56l.36-4.14M379.2 26.16l.22-2.52M387.17 26.86l.22-2.53M386.17 26.77l.22-2.52M385.17 26.7l.22-2.54M384.18 26.6l.22-2.53M383.15 26.92l.25-2.92M382.18 26.42l.23-2.52M381.2 26.34l.2-2.53M380.2 26.25l.2-2.53"/></g><g><path d="M398 29.43l.35-4.14M389.16 27.04l.22-2.53M397.13 27.73l.22-2.52M396.14 27.65l.22-2.53M395.14 27.56l.22-2.53M394.14 27.47l.22-2.52M393.1 27.8l.27-2.93M392.15 27.3l.22-2.53M391.15 27.2l.23-2.52M390.16 27.12l.22-2.52"/></g><g><path d="M407.95 30.3l.37-4.13M399.13 27.9l.22-2.52M407.1 28.6l.22-2.52M406.1 28.52l.22-2.53M405.1 28.43l.23-2.53M404.1 28.34l.23-2.52M403.08 28.66l.25-2.9M402.12 28.17l.22-2.53M401.12 28.08l.22-2.52M400.13 28l.22-2.53"/></g><g><path d="M417.92 31.18l.36-4.14M409.1 28.78l.22-2.53M417.06 29.48l.23-2.53M416.07 29.4l.22-2.54M415.07 29.3l.22-2.52M414.08 29.2l.22-2.5M413.04 29.54l.26-2.92M412.08 29.04l.22-2.53M411.1 28.95l.2-2.52M410.1 28.87l.2-2.53"/></g><g><path d="M427.9 32.05l.35-4.14M419.06 29.65l.22-2.52M427.03 30.35l.22-2.53M426.03 30.26l.23-2.52M425.04 30.17l.22-2.52M424.04 30.1l.22-2.54M423 30.4l.27-2.9M422.05 29.9l.22-2.5M421.05 29.83l.22-2.53M420.06 29.74l.22-2.53"/></g><g><path d="M429.03 30.52l.22-2.52M437 31.22l.13-1.5M436 31.13l.2-2.28M435 31.05l.23-2.53M434 30.96l.23-2.53M432.98 31.28l.25-2.92M432.02 30.78l.22-2.52M431.02 30.7l.22-2.53M430.02 30.6l.22-2.52"/></g></g></g><g><path fill="url(#a)" stroke="#000" stroke-width=".3" d="M3.37 180.94c-1.78 0-3.22 1.44-3.22 3.22v7.56c0 1.78 1.44 3.22 3.22 3.22h233.56c1.78 0 3.22-1.44 3.22-3.22v-7.56c0-1.78-1.44-3.22-3.22-3.22H3.37zm17.6 4.97c1.2 0 2.18.93 2.18 2.04s-.98 2-2.2 2-2.18-.9-2.18-2 1-2.03 2.2-2.03zm198.15 0c1.2 0 2.16.93 2.16 2.04s-.96 2-2.16 2-2.2-.9-2.2-2 1-2.03 2.2-2.03z" stroke-linecap="round" stroke-linejoin="round" transform="rotate(-2.412 -3433.737 -9288.57)"/><path fill="none" stroke="url(#b)" stroke-width="1.3" d="M110.73 189a2.18 2 0 1 1-4.36 0 2.18 2 0 1 1 4.36 0z" transform="rotate(-2.412 -3515.336 -11922.247)"/><path fill="none" stroke="url(#b)" stroke-width="1.3" d="M110.73 189a2.18 2 0 1 1-4.36 0 2.18 2 0 1 1 4.36 0z" transform="rotate(-2.412 -3416.015 -7207.812)"/><path fill="none" stroke="#000" stroke-width=".2" d="M405.98 37.4l.18 4.15M397.06 39.4l.07 1.6M405.05 39.06l.1 2.54M404.05 39.1l.1 2.54M403.06 39.15l.1 2.53M402.06 39.2l.1 2.52M401.04 38.82l.12 2.93M400.06 39.27l.1 2.54M399.06 39.32l.1 2.53M398.06 39.36l.1 2.3"/><g fill="none" stroke="#000" stroke-width=".2"><path d="M416.08 36.94l.18 4.15M407.16 38.94l.1 2.53M415.15 38.6l.1 2.54M414.15 38.65l.1 2.53M413.16 38.7l.1 2.52M412.16 38.73l.1 2.53M411.14 38.36l.12 2.93M410.16 38.8l.1 2.55M409.16 38.86l.1 2.53M408.16 38.9l.1 2.53"/></g><g fill="none" stroke="#000" stroke-width=".2"><path d="M426.08 36.52l.18 4.15M417.16 38.52l.1 2.53M425.15 38.18l.1 2.53M424.15 38.22l.1 2.54M423.15 38.27l.1 2.53M422.15 38.3l.1 2.54M421.14 37.94l.12 2.93M420.15 38.4l.1 2.53M419.15 38.43l.1 2.54M418.16 38.48l.1 2.53"/></g><g fill="none" stroke="#000" stroke-width=".2"><path d="M436.08 36.1l.17 4.15M427.15 38.1l.1 2.53M435.15 37.76l.1 2.53M434.15 37.8l.1 2.54M433.15 37.84l.1 2.54M432.15 37.9l.1 2.52M431.13 37.52l.12 2.93M430.15 37.97l.1 2.53M429.15 38l.1 2.55M428.15 38.06l.1 2.53"/></g><g fill="none" stroke="#000" stroke-width=".2"><path d="M446.07 35.68l.18 4.15M437.15 37.68l.1 2.53M445.14 37.34l.1 2.53M444.14 37.38l.1 2.53M443.14 37.42l.1 2.54M442.14 37.47l.1 2.53M441.13 37.1l.12 2.93M440.14 37.55l.1 2.53M439.15 37.6l.1 2.53M438.15 37.63l.1 2.54"/></g><g fill="none" stroke="#000" stroke-width=".2"><path d="M456.07 35.26l.17 4.15M447.14 37.26l.1 2.53M455.14 36.92l.1 2.53M454.14 36.96l.1 2.53M453.14 37l.1 2.54M452.14 37.04l.1 2.54M451.12 36.68l.13 2.92M450.14 37.13l.1 2.53M449.14 37.17l.1 2.53M448.14 37.2l.1 2.55"/></g><g fill="none" stroke="#000" stroke-width=".2"><path d="M466.06 34.84l.18 4.15M457.14 36.83l.1 2.54M465.13 36.5l.1 2.53M464.13 36.54l.1 2.53M463.13 36.58l.1 2.53M462.13 36.62l.1 2.54M461.12 36.26l.12 2.92M460.14 36.7l.1 2.54M459.14 36.75l.1 2.53M458.14 36.8l.1 2.53"/></g><g fill="none" stroke="#000" stroke-width=".2"><path d="M476.06 34.4l.17 4.17M467.13 36.4l.1 2.55M475.13 36.08l.1 2.53M474.13 36.12l.1 2.53M473.13 36.16l.1 2.53M472.13 36.2l.1 2.54M471.1 35.84l.14 2.92M470.13 36.3l.1 2.52M469.13 36.33l.1 2.53M468.13 36.37l.1 2.53"/></g><g fill="none" stroke="#000" stroke-width=".2"><path d="M486.05 34l.18 4.15M477.13 36l.1 2.52M485.12 35.66l.1 2.53M484.12 35.7l.1 2.53M483.12 35.74l.1 2.53M482.13 35.78l.1 2.53M481.1 35.4l.13 2.94M480.13 35.87l.1 2.53M479.13 35.9l.1 2.54M478.13 35.95l.1 2.53"/></g><g fill="none" stroke="#000" stroke-width=".2"><path d="M496.05 33.57l.17 4.15M487.13 35.57l.1 2.53M495.12 35.23l.1 2.54M494.12 35.28l.1 2.53M493.12 35.32l.1 2.53M492.12 35.36l.1 2.53M491.1 35l.13 2.92M490.12 35.44l.1 2.54M489.12 35.5l.1 2.52M488.12 35.53l.1 2.53"/></g><g fill="none" stroke="#000" stroke-width=".2"><path d="M506.04 33.15l.18 4.15M497.12 35.15l.1 2.53M505.1 34.8l.12 2.55M504.1 34.85l.12 2.54M503.12 34.9l.1 2.53M502.12 34.94l.1 2.53M501.1 34.57l.12 2.93M500.12 35.02l.1 2.54M499.12 35.07l.1 2.53M498.12 35.1l.1 2.54"/></g><g fill="none" stroke="#000" stroke-width=".2"><path d="M516.04 32.73l.17 4.15M507.12 34.73l.1 2.53M515.1 34.4l.12 2.52M514.1 34.43l.12 2.54M513.1 34.48l.12 2.53M512.1 34.52l.12 2.53M511.1 34.15l.12 2.93M510.1 34.6l.12 2.54M509.1 34.64l.12 2.54M508.12 34.7l.1 2.52"/></g><g fill="none" stroke="#000" stroke-width=".2"><path d="M526.04 32.3l.17 4.16M517.1 34.3l.12 2.54M525.1 33.97l.1 2.53M524.1 34l.1 2.55M523.1 34.05l.1 2.54M522.1 34.1l.1 2.53M521.1 33.73l.1 2.93M520.1 34.18l.12 2.53M519.1 34.22l.12 2.54M518.1 34.27l.12 2.53"/></g><g fill="none" stroke="#000" stroke-width=".2"><path d="M536.03 31.9l.18 4.14M527.1 33.9l.1 2.52M535.1 33.55l.1 2.53M534.1 33.6l.1 2.52M533.1 33.63l.1 2.54M532.1 33.68l.1 2.53M531.1 33.3l.1 2.94M530.1 33.76l.1 2.53M529.1 33.8l.1 2.53M528.1 33.84l.1 2.54"/></g><g fill="none" stroke="#000" stroke-width=".2"><path d="M546.03 31.47l.17 4.15M537.1 33.46l.1 2.54M545.1 33.13l.1 2.53M544.1 33.17l.1 2.53M543.1 33.2l.1 2.55M542.1 33.25l.1 2.54M541.08 32.9l.13 2.9M540.1 33.34l.1 2.53M539.1 33.38l.1 2.53M538.1 33.42l.1 2.54"/></g><g fill="none" stroke="#000" stroke-width=".2"><path d="M556.02 31.05l.18 4.15M547.1 33.04l.1 2.54M555.1 32.7l.1 2.54M554.1 32.75l.1 2.53M553.1 32.8l.1 2.52M552.1 32.83l.1 2.54M551.08 32.47l.12 2.92M550.1 32.92l.1 2.53M549.1 32.96l.1 2.53M548.1 33l.1 2.53"/></g><g fill="none" stroke="#000" stroke-width=".2"><path d="M566.02 30.62l.17 4.16M557.1 32.62l.1 2.54M565.1 32.3l.1 2.52M564.1 32.33l.1 2.53M563.1 32.37l.1 2.53M562.1 32.4l.1 2.55M561.07 32.05l.13 2.92M560.1 32.5l.1 2.53M559.1 32.54l.1 2.53M558.1 32.58l.1 2.53"/></g><g fill="none" stroke="#000" stroke-width=".2"><path d="M576 30.2l.2 4.16M567.1 32.2l.1 2.53M575.08 31.86l.1 2.54M574.08 31.9l.1 2.54M573.08 31.95l.1 2.53M572.08 32l.1 2.52M571.07 31.62l.12 2.93M570.1 32.08l.1 2.53M569.1 32.12l.1 2.53M568.1 32.16l.1 2.53"/></g><g fill="none" stroke="#000" stroke-width=".2"><path d="M586 29.78l.18 4.15M577.08 31.78l.1 2.53M585.08 31.44l.1 2.54M584.08 31.5l.1 2.52M583.08 31.53l.1 2.53M582.08 31.57l.1 2.53M581.06 31.2l.13 2.93M580.08 31.65l.1 2.54M579.08 31.7l.1 2.53M578.08 31.74l.1 2.53"/></g><g fill="none" stroke="#000" stroke-width=".2"><path d="M596 29.36l.18 4.15M587.08 31.36l.1 2.53M595.07 31.02l.1 2.54M594.07 31.06l.1 2.54M593.07 31.1l.1 2.54M592.08 31.15l.1 2.53M591.06 30.78l.12 2.93M590.08 31.23l.1 2.54M589.08 31.28l.1 2.53M588.08 31.32l.1 2.53"/></g><g fill="none" stroke="#000" stroke-width=".2"><path d="M606 28.94l.17 4.15M597.08 30.94l.1 2.53M605.07 30.6l.1 2.53M604.07 30.64l.1 2.54M603.07 30.7l.1 2.52M602.07 30.73l.1 2.53M601.05 30.36l.13 2.93M600.07 30.8l.1 2.54M599.07 30.85l.1 2.54M598.07 30.9l.1 2.53"/></g><g fill="none" stroke="#000" stroke-width=".2"><path d="M616 28.52l.17 4.15M607.07 30.52l.1 2.53M615.06 30.18l.1 2.53M614.06 30.22l.1 2.54M613.07 30.26l.1 2.54M612.07 30.3l.1 2.54M611.05 29.94l.12 2.93M610.07 30.4l.1 2.52M609.07 30.43l.1 2.54M608.07 30.47l.1 2.54"/></g><g fill="none" stroke="#000" stroke-width=".2"><path d="M626 28.1l.17 4.15M617.07 30.1l.1 2.53M625.06 29.76l.1 2.53M624.06 29.8l.1 2.53M623.06 29.84l.1 2.54M622.06 29.9l.1 2.52M621.05 29.52l.12 2.93M620.06 29.97l.1 2.53M619.06 30l.1 2.54M618.07 30.05l.1 2.54"/></g><g fill="none" stroke="#000" stroke-width=".2"><path d="M627.06 29.67l.1 2.54M635.05 29.34l.07 1.52M634.06 29.38l.1 2.3M633.06 29.42l.1 2.54M632.06 29.46l.1 2.54M631.04 29.1l.12 2.92M630.06 29.55l.1 2.53M629.06 29.6l.1 2.52M628.06 29.63l.1 2.54"/></g><g fill="none" stroke="#000" stroke-width=".2"><path d="M405.85 31.68l-.17-4.15M396.8 30.44l-.08-1.62M404.78 30.1l-.1-2.53M403.78 30.14l-.1-2.53M402.78 30.2l-.1-2.55M401.8 30.23l-.12-2.54M400.8 30.68l-.12-2.93M399.8 30.3l-.12-2.52M398.8 30.35l-.12-2.53M397.8 30.4l-.1-2.3M415.85 31.26l-.18-4.16M406.8 30.02l-.12-2.54M414.78 29.68l-.1-2.53M413.78 29.72l-.1-2.53M412.78 29.76l-.1-2.53M411.78 29.8l-.1-2.53M410.8 30.26l-.12-2.93M409.78 29.9l-.1-2.54M408.78 29.93l-.1-2.53M407.78 29.97l-.1-2.53M425.84 30.84l-.17-4.16M416.78 29.6l-.1-2.54M424.77 29.26l-.1-2.53M423.77 29.3l-.1-2.53M422.78 29.34l-.1-2.53M421.78 29.38l-.1-2.53M420.8 29.84l-.13-2.93M419.78 29.47l-.1-2.53M418.78 29.5l-.1-2.52M417.78 29.55l-.1-2.53M435.84 30.4l-.18-4.14M426.78 29.17l-.1-2.53M434.77 28.84l-.1-2.54M433.77 28.88l-.1-2.53M432.77 28.92l-.1-2.53M431.77 28.96l-.1-2.53M430.8 29.4l-.13-2.9M429.77 29.05l-.1-2.54M428.77 29.1l-.1-2.54M427.78 29.13l-.1-2.53"/><g><path d="M445.83 30l-.17-4.16M436.77 28.75l-.1-2.53M444.76 28.42l-.1-2.54M443.77 28.46l-.1-2.53M442.77 28.5l-.1-2.53M441.77 28.54l-.1-2.53M440.8 29l-.14-2.93M439.77 28.63l-.1-2.54M438.77 28.67l-.1-2.53M437.77 28.7l-.1-2.52"/></g><g><path d="M455.83 29.57l-.18-4.15M446.77 28.33l-.1-2.53M454.76 28l-.1-2.54M453.76 28.04l-.1-2.54M452.76 28.08l-.1-2.53M451.76 28.12l-.1-2.53M450.78 28.57l-.12-2.92M449.76 28.2l-.1-2.53M448.77 28.25l-.1-2.54M447.77 28.3l-.1-2.54"/></g><g><path d="M465.82 29.15l-.17-4.15M456.76 27.9l-.1-2.52M464.76 27.57l-.1-2.53M463.76 27.62l-.1-2.54M462.76 27.66l-.1-2.53M461.76 27.7l-.1-2.53M460.78 28.15l-.13-2.93M459.76 27.78l-.1-2.53M458.76 27.83l-.1-2.54M457.76 27.87l-.1-2.53"/></g><g><path d="M475.82 28.73l-.18-4.15M466.76 27.5l-.1-2.54M474.75 27.15l-.1-2.53M473.75 27.2l-.1-2.54M472.75 27.24l-.1-2.54M471.75 27.28l-.1-2.53M470.77 27.73l-.12-2.93M469.76 27.36l-.1-2.53M468.76 27.4l-.1-2.53M467.76 27.45l-.1-2.54"/></g><g><path d="M485.8 28.3l-.16-4.14M476.75 27.07l-.1-2.53M484.75 26.73l-.1-2.53M483.75 26.77l-.1-2.53M482.75 26.82l-.1-2.54M481.75 26.86l-.1-2.53M480.77 27.3l-.13-2.92M479.75 26.94l-.1-2.53M478.75 26.98l-.1-2.53M477.75 27.03l-.1-2.54"/></g><g><path d="M495.8 27.9l-.17-4.16M486.75 26.65l-.1-2.54M494.74 26.3l-.1-2.52M493.74 26.35l-.1-2.53M492.74 26.4l-.1-2.54M491.74 26.44l-.1-2.54M490.76 26.9l-.12-2.94M489.75 26.52l-.1-2.53M488.75 26.56l-.1-2.53M487.75 26.6l-.1-2.53"/></g><g><path d="M505.8 27.47l-.17-4.16M496.74 26.23l-.1-2.54M504.74 25.9l-.1-2.54M503.74 25.93l-.1-2.53M502.74 25.97l-.1-2.53M501.74 26.02l-.1-2.54M500.76 26.47l-.13-2.93M499.74 26.1l-.1-2.53M498.74 26.14l-.1-2.53M497.74 26.18l-.1-2.53"/></g><g><path d="M515.8 27.05l-.17-4.16M506.74 25.8l-.1-2.53M514.73 25.47l-.1-2.53M513.73 25.5l-.1-2.52M512.73 25.55l-.1-2.53M511.74 25.6l-.1-2.54M510.75 26.05l-.12-2.93M509.74 25.68l-.1-2.53M508.74 25.72l-.1-2.53M507.74 25.76l-.1-2.53"/></g><g><path d="M525.8 26.62l-.18-4.15M516.74 25.38l-.1-2.53M524.73 25.05l-.1-2.54M523.73 25.1l-.1-2.54M522.73 25.13l-.1-2.53M521.73 25.17l-.1-2.53M520.75 25.62l-.12-2.92M519.73 25.26l-.1-2.54M518.73 25.3l-.1-2.53M517.73 25.34l-.1-2.53"/></g><g><path d="M535.8 26.2l-.18-4.15M526.73 24.96l-.1-2.53M534.72 24.63l-.1-2.54M533.72 24.67l-.1-2.53M532.73 24.7l-.1-2.52M531.73 24.75l-.1-2.53M530.74 25.2l-.12-2.92M529.73 24.84l-.1-2.54M528.73 24.88l-.1-2.53M527.73 24.92l-.1-2.53"/></g><g><path d="M545.8 25.78l-.2-4.15M536.73 24.54l-.1-2.53M544.72 24.2l-.1-2.53M543.72 24.25l-.1-2.54M542.72 24.3l-.1-2.54M541.72 24.33l-.1-2.53M540.74 24.78l-.12-2.92M539.72 24.42l-.1-2.54M538.72 24.46l-.1-2.54M537.73 24.5l-.1-2.53"/></g><g><path d="M555.78 25.36l-.17-4.15M546.72 24.12l-.1-2.53M554.7 23.78l-.1-2.53M553.72 23.83l-.1-2.54M552.72 23.87l-.1-2.54M551.72 23.9l-.1-2.52M550.74 24.36l-.13-2.93M549.72 24l-.1-2.54M548.72 24.04l-.1-2.54M547.72 24.08l-.1-2.53"/></g><g><path d="M565.78 24.94l-.18-4.15M556.72 23.7l-.1-2.53M564.7 23.36l-.1-2.53M563.7 23.4l-.1-2.53M562.7 23.45l-.1-2.54M561.7 23.5l-.1-2.54M560.73 23.94L560.6 21M559.7 23.57l-.1-2.53M558.72 23.62l-.1-2.54M557.72 23.66l-.1-2.54"/></g><g><path d="M575.77 24.52l-.17-4.15M566.7 23.28l-.1-2.53M574.7 22.94l-.1-2.53M573.7 22.98l-.1-2.53M572.7 23.03l-.1-2.54M571.7 23.07l-.1-2.54M570.73 23.52l-.13-2.93M569.7 23.15l-.1-2.53M568.7 23.2l-.1-2.54M567.7 23.24l-.1-2.54"/></g><g><path d="M585.77 24.1l-.18-4.15M576.7 22.86l-.1-2.54M584.7 22.52l-.1-2.53M583.7 22.56l-.1-2.53M582.7 22.6l-.1-2.53M581.7 22.65l-.1-2.54M580.72 23.1l-.12-2.93M579.7 22.73l-.1-2.53M578.7 22.77l-.1-2.53M577.7 22.82l-.1-2.54"/></g><g><path d="M595.76 23.68l-.17-4.16M586.7 22.44l-.1-2.54M594.7 22.1l-.1-2.53M593.7 22.14l-.1-2.53M592.7 22.18l-.1-2.53M591.7 22.23l-.1-2.54M590.72 22.68l-.13-2.93M589.7 22.3l-.1-2.52M588.7 22.35l-.1-2.53M587.7 22.4l-.1-2.54"/></g><g><path d="M605.76 23.26l-.18-4.16M596.7 22l-.1-2.52M604.7 21.68l-.1-2.53M603.7 21.72l-.1-2.53M602.7 21.76l-.1-2.53M601.7 21.8l-.1-2.53M600.7 22.26l-.1-2.93M599.7 21.9l-.1-2.54M598.7 21.93l-.1-2.53M597.7 21.97l-.1-2.53"/></g><g><path d="M615.76 22.83l-.18-4.15M606.7 21.6l-.1-2.54M614.7 21.26l-.12-2.54M613.7 21.3l-.12-2.53M612.7 21.34l-.12-2.53M611.7 21.38l-.12-2.53M610.7 21.83l-.1-2.92M609.7 21.47l-.1-2.54M608.7 21.5l-.1-2.52M607.7 21.55l-.1-2.53"/></g><g><path d="M625.75 22.4l-.17-4.14M616.7 21.17l-.12-2.53M624.68 20.84l-.1-2.54M623.68 20.88l-.1-2.54M622.7 20.92l-.12-2.53M621.7 20.96l-.12-2.53M620.7 21.4l-.12-2.9M619.7 21.05l-.12-2.54M618.7 21.1l-.12-2.54M617.7 21.13l-.12-2.53"/></g><g><path d="M626.7 20.75l-.12-2.53M634.68 20.4l-.07-1.5M633.68 20.46l-.1-2.3M632.68 20.5l-.1-2.53M631.68 20.54l-.1-2.53M630.7 21l-.12-2.93M629.68 20.63l-.1-2.54M628.68 20.67l-.1-2.54M627.68 20.7l-.1-2.52"/></g></g></g><g><path fill="url(#a)" stroke="#000" stroke-width=".3" d="M3.37 180.94c-1.78 0-3.22 1.44-3.22 3.22v7.56c0 1.78 1.44 3.22 3.22 3.22h233.56c1.78 0 3.22-1.44 3.22-3.22v-7.56c0-1.78-1.44-3.22-3.22-3.22H3.37zm17.6 4.97c1.2 0 2.18.93 2.18 2.04s-.98 2-2.2 2-2.18-.9-2.18-2 1-2.03 2.2-2.03zm198.15 0c1.2 0 2.16.93 2.16 2.04s-.96 2-2.16 2-2.2-.9-2.2-2 1-2.03 2.2-2.03z" stroke-linecap="round" stroke-linejoin="round" transform="translate(594.476 -162.086)"/><path fill="none" stroke="url(#b)" stroke-width="1.3" d="M110.73 189a2.18 2 0 1 1-4.36 0 2.18 2 0 1 1 4.36 0z" transform="translate(705.417 -163.08)"/><path fill="none" stroke="url(#b)" stroke-width="1.3" d="M110.73 189a2.18 2 0 1 1-4.36 0 2.18 2 0 1 1 4.36 0z" transform="translate(506.87 -163.268)"/><path fill="none" stroke="#000" stroke-width=".2" d="M604.58 28.65v4.15M595.58 30.27v1.6M603.58 30.27v2.53M602.58 30.27v2.53M601.58 30.27v2.53M600.58 30.27v2.53M599.58 29.86v2.93M598.58 30.27v2.53M597.58 30.27v2.53M596.58 30.27v2.3"/><g fill="none" stroke="#000" stroke-width=".2"><path d="M614.4 28.67v4.15M605.4 30.28v2.53M613.4 30.3v2.52M612.4 30.3v2.52M611.4 30.28v2.54M610.4 30.28v2.54M609.4 29.87v2.93M608.4 30.28v2.54M607.4 30.28v2.54M606.4 30.28v2.54"/></g><g fill="none" stroke="#000" stroke-width=".2"><path d="M624.4 28.68v4.15M615.4 30.3v2.52M623.4 30.3v2.53M622.4 30.3v2.53M621.4 30.3v2.53M620.4 30.3v2.53M619.4 29.88v2.93M618.4 30.3v2.53M617.4 30.3v2.53M616.4 30.3v2.52"/></g><g fill="none" stroke="#000" stroke-width=".2"><path d="M634.4 28.7v4.14M625.4 30.3v2.53M633.4 30.3v2.54M632.4 30.3v2.54M631.4 30.3v2.54M630.4 30.3v2.54M629.4 29.9v2.92M628.4 30.3v2.54M627.4 30.3v2.53M626.4 30.3v2.53"/></g><g fill="none" stroke="#000" stroke-width=".2"><path d="M644.4 28.7v4.15M635.4 30.3v2.54M643.4 30.3v2.55M642.4 30.3v2.55M641.4 30.3v2.55M640.4 30.3v2.55M639.4 29.9v2.93M638.4 30.3v2.55M637.4 30.3v2.54M636.4 30.3v2.54"/></g><g fill="none" stroke="#000" stroke-width=".2"><path d="M654.42 28.7v4.16M645.42 30.32v2.53M653.42 30.32v2.54M652.42 30.32v2.54M651.42 30.32v2.54M650.42 30.32v2.54M649.42 29.9v2.94M648.42 30.32v2.53M647.42 30.32v2.53M646.42 30.32v2.53"/></g><g fill="none" stroke="#000" stroke-width=".2"><path d="M664.42 28.7v4.17M655.42 30.33v2.53M663.42 30.33v2.54M662.42 30.33v2.54M661.42 30.33v2.54M660.42 30.33v2.54M659.42 29.92v2.93M658.42 30.33v2.53M657.42 30.33v2.53M656.42 30.33v2.53"/></g><g fill="none" stroke="#000" stroke-width=".2"><path d="M674.43 28.72v4.16M665.43 30.34v2.53M673.43 30.34v2.54M672.43 30.34v2.54M671.43 30.34v2.54M670.43 30.34v2.54M669.43 29.93v2.93M668.43 30.34v2.53M667.43 30.34v2.53M666.43 30.34v2.53"/></g><g fill="none" stroke="#000" stroke-width=".2"><path d="M684.43 28.73v4.16M675.43 30.34v2.54M683.43 30.35v2.54M682.43 30.35v2.54M681.43 30.35v2.54M680.43 30.35v2.53M679.43 29.94v2.93M678.43 30.35v2.53M677.43 30.35v2.53M676.43 30.35v2.53"/></g><g fill="none" stroke="#000" stroke-width=".2"><path d="M694.44 28.74v4.16M685.43 30.35v2.54M693.43 30.36v2.54M692.43 30.36v2.54M691.43 30.36v2.54M690.43 30.36v2.53M689.43 29.95v2.93M688.43 30.36v2.53M687.43 30.36v2.53M686.43 30.36v2.53"/></g><g fill="none" stroke="#000" stroke-width=".2"><path d="M704.44 28.75v4.16M695.44 30.36v2.54M703.44 30.37v2.54M702.44 30.37v2.54M701.44 30.37v2.53M700.44 30.37v2.53M699.44 29.96v2.93M698.44 30.37v2.53M697.44 30.37v2.53M696.44 30.36v2.54"/></g><g fill="none" stroke="#000" stroke-width=".2"><path d="M714.44 28.76v4.16M705.44 30.37v2.54M713.44 30.38v2.54M712.44 30.38v2.54M711.44 30.38v2.53M710.44 30.38v2.53M709.44 29.97v2.93M708.44 30.38v2.53M707.44 30.38v2.53M706.44 30.37v2.54"/></g><g fill="none" stroke="#000" stroke-width=".2"><path d="M724.45 28.77v4.16M715.45 30.38v2.54M723.45 30.4v2.53M722.45 30.4v2.52M721.45 30.4v2.52M720.45 30.4v2.52M719.45 29.98v2.93M718.45 30.4v2.52M717.45 30.38v2.54M716.45 30.38v2.54"/></g><g fill="none" stroke="#000" stroke-width=".2"><path d="M734.45 28.78v4.16M725.45 30.4v2.53M733.45 30.4v2.54M732.45 30.4v2.53M731.45 30.4v2.53M730.45 30.4v2.53M729.45 30v2.92M728.45 30.4v2.53M727.45 30.4v2.53M726.45 30.4v2.53"/></g><g fill="none" stroke="#000" stroke-width=".2"><path d="M744.46 28.8v4.15M735.46 30.4v2.54M743.46 30.4v2.54M742.46 30.4v2.54M741.46 30.4v2.54M740.46 30.4v2.54M739.46 30v2.93M738.46 30.4v2.54M737.46 30.4v2.54M736.46 30.4v2.54"/></g><g fill="none" stroke="#000" stroke-width=".2"><path d="M754.46 28.8v4.15M745.46 30.4v2.55M753.46 30.42v2.53M752.46 30.42v2.53M751.46 30.42v2.53M750.46 30.42v2.53M749.46 30v2.93M748.46 30.4v2.55M747.46 30.4v2.55M746.46 30.4v2.55"/></g><g fill="none" stroke="#000" stroke-width=".2"><path d="M764.47 28.8v4.16M755.46 30.42v2.54M763.46 30.43v2.53M762.46 30.43v2.53M761.46 30.43v2.53M760.46 30.43v2.53M759.46 30.02v2.92M758.46 30.42v2.54M757.46 30.42v2.54M756.46 30.42v2.54"/></g><g fill="none" stroke="#000" stroke-width=".2"><path d="M774.47 28.82v4.15M765.47 30.43v2.54M773.47 30.44v2.53M772.47 30.44v2.53M771.47 30.44v2.53M770.47 30.43v2.54M769.47 30.02v2.93M768.47 30.43v2.54M767.47 30.43v2.54M766.47 30.43v2.54"/></g><g fill="none" stroke="#000" stroke-width=".2"><path d="M784.47 28.83v4.15M775.47 30.44v2.53M783.47 30.45v2.53M782.47 30.45v2.53M781.47 30.45v2.53M780.47 30.44v2.54M779.47 30.03v2.93M778.47 30.44v2.54M777.47 30.44v2.54M776.47 30.44v2.54"/></g><g fill="none" stroke="#000" stroke-width=".2"><path d="M794.48 28.84V33M785.48 30.45v2.53M793.48 30.46V33M792.48 30.46V33M791.48 30.45V33M790.48 30.45V33M789.48 30.04v2.93M788.48 30.45V33M787.48 30.45V33M786.48 30.45V33"/></g><g fill="none" stroke="#000" stroke-width=".2"><path d="M804.48 28.85V33M795.48 30.46V33M803.48 30.47V33M802.48 30.46V33M801.48 30.46V33M800.48 30.46V33M799.48 30.05v2.93M798.48 30.46V33M797.48 30.46V33M796.48 30.46V33"/></g><g fill="none" stroke="#000" stroke-width=".2"><path d="M814.5 28.86l-.02 4.15M805.5 30.47l-.02 2.53M813.5 30.48l-.02 2.53M812.5 30.47l-.02 2.54M811.5 30.47l-.02 2.54M810.5 30.47l-.02 2.54M809.5 30.06l-.02 2.93M808.5 30.47l-.02 2.54M807.5 30.47l-.02 2.53M806.5 30.47l-.02 2.53"/></g><g fill="none" stroke="#000" stroke-width=".2"><path d="M824.5 28.86v4.16M815.5 30.48V33M823.5 30.48v2.54M822.5 30.48v2.54M821.5 30.48v2.54M820.5 30.48v2.54M819.5 30.07V33M818.5 30.48v2.54M817.5 30.48V33M816.5 30.48V33"/></g><g fill="none" stroke="#000" stroke-width=".2"><path d="M825.5 30.5V33M833.5 30.5V32M832.5 30.5v2.3M831.5 30.5v2.53M830.5 30.5v2.53M829.5 30.08V33M828.5 30.5V33M827.5 30.5V33M826.5 30.5V33"/></g><g fill="none" stroke="#000" stroke-width=".2"><path d="M604.4 22.97V18.8M595.4 21.34v-1.62M603.4 21.35V18.8M602.4 21.34V18.8M601.4 21.34V18.8M600.4 21.34V18.8M599.4 21.75v-2.93M598.4 21.34V18.8M597.4 21.34V18.8M596.4 21.34v-2.3M614.4 22.98v-4.16M605.4 21.35V18.8M613.4 21.36v-2.54M612.4 21.35v-2.53M611.4 21.35v-2.53M610.4 21.35v-2.53M609.4 21.76v-2.93M608.4 21.35v-2.53M607.4 21.35V18.8M606.4 21.35V18.8M624.4 23v-4.17M615.4 21.36v-2.54M623.4 21.36v-2.53M622.4 21.36v-2.53M621.4 21.36v-2.53M620.4 21.36v-2.53M619.4 21.77v-2.93M618.4 21.36v-2.54M617.4 21.36v-2.54M616.4 21.36v-2.54M634.4 23l.02-4.16M625.42 21.37v-2.54M633.42 21.37v-2.53M632.42 21.37v-2.53M631.42 21.37v-2.53M630.42 21.37v-2.53M629.42 21.78v-2.93M628.42 21.37v-2.54M627.42 21.37v-2.54M626.42 21.37v-2.54"/><g><path d="M644.42 23v-4.15M635.42 21.38v-2.54M643.42 21.38v-2.53M642.42 21.38v-2.53M641.42 21.38v-2.53M640.42 21.38v-2.53M639.42 21.8v-2.94M638.42 21.38v-2.54M637.42 21.38v-2.54M636.42 21.38v-2.54"/></g><g><path d="M654.42 23v-4.14M645.42 21.4v-2.55M653.42 21.4v-2.54M652.42 21.4v-2.54M651.42 21.4v-2.54M650.42 21.4v-2.55M649.42 21.8v-2.93M648.42 21.4v-2.55M647.42 21.4v-2.55M646.42 21.4v-2.55"/></g><g><path d="M664.43 23.02v-4.15M655.43 21.4v-2.54M663.43 21.4v-2.53M662.43 21.4v-2.53M661.43 21.4v-2.53M660.43 21.4v-2.54M659.43 21.8V18.9M658.43 21.4v-2.54M657.43 21.4v-2.54M656.43 21.4v-2.54"/></g><g><path d="M674.43 23.03v-4.15M665.43 21.4v-2.53M673.43 21.4V18.9M672.43 21.4V18.9M671.43 21.4v-2.53M670.43 21.4v-2.53M669.43 21.82V18.9M668.43 21.4v-2.53M667.43 21.4v-2.53M666.43 21.4v-2.53"/></g><g><path d="M684.44 23.04V18.9M675.44 21.4V18.9M683.44 21.42V18.9M682.44 21.42V18.9M681.44 21.42v-2.54M680.44 21.42v-2.54M679.44 21.83V18.9M678.44 21.42v-2.54M677.44 21.42v-2.54M676.44 21.4V18.9"/></g><g><path d="M694.44 23.05V18.9M685.44 21.42V18.9M693.44 21.43V18.9M692.44 21.43V18.9M691.44 21.43V18.9M690.44 21.43V18.9M689.44 21.84V18.9M688.44 21.43V18.9M687.44 21.43V18.9M686.44 21.42V18.9"/></g><g><path d="M704.45 23.06V18.9M695.45 21.43V18.9M703.45 21.44V18.9M702.45 21.44V18.9M701.45 21.44V18.9M700.45 21.44V18.9M699.45 21.85v-2.93M698.45 21.44V18.9M697.45 21.43V18.9M696.45 21.43V18.9"/></g><g><path d="M714.45 23.07v-4.15M705.45 21.44V18.9M713.45 21.45V18.9M712.45 21.45V18.9M711.45 21.45V18.9M710.45 21.45V18.9M709.45 21.86v-2.93M708.45 21.44V18.9M707.45 21.44V18.9M706.45 21.44V18.9"/></g><g><path d="M724.45 23.08v-4.16M715.46 21.45v-2.53M723.46 21.46v-2.54M722.46 21.46v-2.54M721.46 21.46v-2.54M720.46 21.46v-2.54M719.45 21.86v-2.92M718.46 21.45v-2.53M717.46 21.45v-2.53M716.46 21.45v-2.53"/></g><g><path d="M734.46 23.1v-4.17M725.46 21.46v-2.53M733.46 21.47v-2.54M732.46 21.47v-2.54M731.46 21.47v-2.54M730.46 21.47v-2.54M729.46 21.87v-2.93M728.46 21.46v-2.53M727.46 21.46v-2.53M726.46 21.46v-2.53"/></g><g><path d="M744.46 23.1v-4.16M735.46 21.47v-2.53M743.46 21.48v-2.54M742.46 21.48v-2.54M741.46 21.48v-2.54M740.46 21.48v-2.54M739.46 21.88v-2.93M738.46 21.47v-2.53M737.46 21.47v-2.53M736.46 21.47v-2.53"/></g><g><path d="M754.47 23.1v-4.15M745.47 21.48v-2.54M753.47 21.5v-2.55M752.47 21.5v-2.55M751.47 21.5v-2.55M750.47 21.48v-2.53M749.47 21.9v-2.94M748.47 21.48v-2.53M747.47 21.48v-2.53M746.47 21.48v-2.53"/></g><g><path d="M764.47 23.12v-4.16M755.47 21.5v-2.55M763.47 21.5v-2.54M762.47 21.5v-2.54M761.47 21.5v-2.54M760.47 21.5v-2.54M759.47 21.9v-2.93M758.47 21.5v-2.54M757.47 21.5v-2.54M756.47 21.5v-2.55"/></g><g><path d="M774.48 23.13v-4.16M765.48 21.5v-2.54M773.48 21.5v-2.53M772.48 21.5v-2.53M771.48 21.5v-2.53M770.48 21.5v-2.53M769.48 21.9V19M768.48 21.5v-2.53M767.48 21.5v-2.53M766.48 21.5v-2.54"/></g><g><path d="M784.48 23.14v-4.16M775.48 21.5v-2.53M783.48 21.52v-2.54M782.48 21.5V19M781.48 21.5V19M780.48 21.5V19M779.48 21.92V19M778.48 21.5V19M777.48 21.5v-2.53M776.48 21.5v-2.53"/></g><g><path d="M794.48 23.15V19M785.5 21.52v-2.54M793.5 21.53V19M792.5 21.52V19M791.5 21.52V19M790.5 21.52V19M789.5 21.93V19M788.5 21.52V19M787.5 21.52v-2.54M786.5 21.52v-2.54"/></g><g><path d="M804.5 23.16V19M795.5 21.53V19M803.5 21.53V19M802.5 21.53V19M801.5 21.53V19M800.5 21.53V19M799.5 21.94V19M798.5 21.53V19M797.5 21.53V19M796.5 21.53V19"/></g><g><path d="M814.5 23.17V19M805.5 21.54V19M813.5 21.54V19M812.5 21.54V19M811.5 21.54V19M810.5 21.54V19M809.5 21.95v-2.93M808.5 21.54V19M807.5 21.54V19M806.5 21.54V19"/></g><g><path d="M824.5 23.18v-4.16M815.5 21.55V19M823.5 21.55v-2.53M822.5 21.55v-2.53M821.5 21.55v-2.53M820.5 21.55v-2.53M819.5 21.96v-2.93M818.5 21.55V19M817.5 21.55V19M816.5 21.55V19"/></g><g><path d="M825.5 21.56v-2.54M833.5 21.56v-1.52M832.5 21.56v-2.3M831.5 21.56v-2.53M830.5 21.56v-2.54M829.5 21.97v-2.93M828.5 21.56v-2.54M827.5 21.56v-2.54M826.5 21.56v-2.54"/></g></g></g><g><path fill="url(#a)" stroke="#000" stroke-width=".3" d="M3.37 180.94c-1.78 0-3.22 1.44-3.22 3.22v7.56c0 1.78 1.44 3.22 3.22 3.22h233.56c1.78 0 3.22-1.44 3.22-3.22v-7.56c0-1.78-1.44-3.22-3.22-3.22H3.37zm17.6 4.97c1.2 0 2.18.93 2.18 2.04s-.98 2-2.2 2-2.18-.9-2.18-2 1-2.03 2.2-2.03zm198.15 0c1.2 0 2.16.93 2.16 2.04s-.96 2-2.16 2-2.2-.9-2.2-2 1-2.03 2.2-2.03z" stroke-linecap="round" stroke-linejoin="round" transform="rotate(-5 -1437.45 -8973.325)"/><path fill="none" stroke="url(#b)" stroke-width="1.3" d="M110.73 189a2.18 2 0 1 1-4.36 0 2.18 2 0 1 1 4.36 0z" transform="rotate(-5 -1505.513 -10243.24)"/><path fill="none" stroke="url(#b)" stroke-width="1.3" d="M110.73 189a2.18 2 0 1 1-4.36 0 2.18 2 0 1 1 4.36 0z" transform="rotate(-5 -1406.23 -7969.51)"/><path fill="none" stroke="#000" stroke-width=".2" d="M803.3 29.7l.35 4.14M794.47 32.1l.14 1.6M802.44 31.4l.22 2.53M801.44 31.5l.22 2.5M800.44 31.57l.23 2.53M799.45 31.66l.22 2.53M798.42 31.34l.25 2.92M797.46 31.84l.22 2.52M796.46 31.92l.22 2.53M795.46 32l.2 2.3"/><g fill="none" stroke="#000" stroke-width=".2"><path d="M813.26 28.83l.36 4.14M804.44 31.23l.22 2.52M812.4 30.53l.23 2.53M811.4 30.62l.23 2.52M810.4 30.7l.23 2.53M809.42 30.8l.22 2.52M808.4 30.47l.24 2.92M807.43 30.97l.22 2.52M806.43 31.05l.22 2.53M805.43 31.14l.22 2.53"/></g><g fill="none" stroke="#000" stroke-width=".2"><path d="M823.23 27.96l.36 4.14M814.4 30.36l.22 2.52M822.37 29.66l.22 2.52M821.38 29.75l.22 2.52M820.38 29.83l.22 2.53M819.38 29.92l.22 2.53M818.35 29.6l.26 2.92M817.4 30.1l.2 2.52M816.4 30.18l.22 2.53M815.4 30.27l.22 2.53"/></g><g fill="none" stroke="#000" stroke-width=".2"><path d="M833.2 27.1l.36 4.13M824.37 29.48l.22 2.53M832.34 28.8l.22 2.5M831.34 28.87l.22 2.53M830.35 28.96l.22 2.53M829.35 29.05l.22 2.52M828.32 28.73l.25 2.92M827.36 29.22l.22 2.53M826.36 29.3l.22 2.54M825.37 29.4l.22 2.52"/></g><g fill="none" stroke="#000" stroke-width=".2"><path d="M843.16 26.2l.36 4.15M834.34 28.6l.22 2.54M842.3 27.92l.23 2.52M841.3 28l.23 2.53M840.3 28.1l.23 2.52M839.32 28.18l.22 2.52M838.28 27.86l.26 2.9M837.32 28.35l.22 2.53M836.33 28.44l.22 2.52M835.33 28.53l.22 2.52"/></g><g fill="none" stroke="#000" stroke-width=".2"><path d="M853.13 25.34l.36 4.14M844.3 27.74l.22 2.53M852.27 27.04l.22 2.53M851.28 27.13l.22 2.53M850.28 27.22l.22 2.52M849.28 27.3l.22 2.53M848.25 26.98l.26 2.92M847.3 27.48l.2 2.52M846.3 27.57l.22 2.52M845.3 27.65l.22 2.53"/></g><g fill="none" stroke="#000" stroke-width=".2"><path d="M863.1 24.47l.35 4.14M854.27 26.87l.22 2.52M862.24 26.17l.22 2.53M861.24 26.26l.22 2.52M860.25 26.35l.22 2.52M859.25 26.43l.22 2.53M858.22 26.1l.25 2.93M857.26 26.6l.22 2.53M856.26 26.7l.22 2.52M855.26 26.78l.23 2.53"/></g><g fill="none" stroke="#000" stroke-width=".2"><path d="M873.06 23.6l.36 4.14M864.23 26l.23 2.52M872.2 25.3l.22 2.53M871.2 25.4l.23 2.5M870.2 25.47l.23 2.53M869.22 25.56l.22 2.53M868.18 25.24l.26 2.92M867.22 25.74l.22 2.52M866.23 25.82l.22 2.53M865.23 25.9l.22 2.54"/></g><g fill="none" stroke="#000" stroke-width=".2"><path d="M883.03 22.73l.36 4.14M874.2 25.12l.22 2.53M882.17 24.43l.22 2.52M881.17 24.5l.22 2.54M880.18 24.6l.22 2.53M879.18 24.7l.22 2.5M878.15 24.37l.25 2.92M877.2 24.86l.2 2.53M876.2 24.95l.2 2.53M875.2 25.04l.22 2.52"/></g><g fill="none" stroke="#000" stroke-width=".2"><path d="M893 21.85l.35 4.14M884.17 24.25l.22 2.53M892.14 23.56l.22 2.52M891.14 23.64l.22 2.53M890.14 23.73l.22 2.53M889.15 23.82l.22 2.52M888.12 23.5l.25 2.9M887.16 24l.22 2.52M886.16 24.08l.22 2.52M885.16 24.17l.22 2.52"/></g><g fill="none" stroke="#000" stroke-width=".2"><path d="M902.96 20.98l.36 4.14M894.13 23.38l.22 2.53M902.1 22.68l.22 2.53M901.1 22.77l.23 2.53M900.1 22.86l.23 2.52M899.1 22.95l.24 2.52M898.08 22.62l.26 2.92M897.12 23.12l.22 2.53M896.13 23.2l.22 2.53M895.13 23.3l.22 2.52"/></g><g fill="none" stroke="#000" stroke-width=".2"><path d="M912.92 20.1l.37 4.15M904.1 22.5l.22 2.53M912.07 21.8l.22 2.54M911.07 21.9l.22 2.52M910.08 22l.22 2.5M909.08 22.07l.22 2.53M908.05 21.75l.25 2.92M907.1 22.25l.2 2.52M906.1 22.33l.2 2.53M905.1 22.42l.22 2.53"/></g><g fill="none" stroke="#000" stroke-width=".2"><path d="M922.9 19.24l.35 4.14M914.07 21.64l.22 2.52M922.04 20.94l.22 2.53M921.04 21.03l.22 2.52M920.04 21.1l.22 2.54M919.05 21.2l.22 2.53M918 20.88l.27 2.92M917.05 21.38l.23 2.52M916.06 21.46l.22 2.53M915.06 21.55l.22 2.53"/></g><g fill="none" stroke="#000" stroke-width=".2"><path d="M932.86 18.37l.36 4.14M924.03 20.77l.22 2.52M932 20.07l.22 2.52M931 20.16l.23 2.52M930 20.24l.23 2.53M929 20.33l.23 2.53M927.98 20l.26 2.93M927.02 20.5l.22 2.53M926.02 20.6l.23 2.52M925.03 20.68l.22 2.52"/></g><g fill="none" stroke="#000" stroke-width=".2"><path d="M942.82 17.5l.36 4.13M934 19.9l.22 2.52M941.97 19.2l.22 2.52M940.97 19.28l.22 2.53M939.98 19.37l.22 2.53M938.98 19.46l.22 2.52M937.95 19.14l.25 2.9M937 19.63l.2 2.53M936 19.72l.2 2.52M935 19.8l.22 2.53"/></g><g fill="none" stroke="#000" stroke-width=".2"><path d="M952.8 16.62l.35 4.14M943.96 19.02l.23 2.53M951.93 18.32l.23 2.53M950.94 18.4l.22 2.54M949.94 18.5l.22 2.52M948.95 18.6l.22 2.5M947.9 18.27l.27 2.9M946.95 18.76l.22 2.53M945.96 18.85l.22 2.52M944.96 18.93l.22 2.53"/></g><g fill="none" stroke="#000" stroke-width=".2"><path d="M962.76 15.75l.36 4.14M953.93 18.15l.22 2.53M961.9 17.45l.22 2.53M960.9 17.54l.23 2.52M959.9 17.63l.23 2.52M958.9 17.7l.23 2.54M957.88 17.4l.26 2.9M956.92 17.9l.22 2.5M955.92 17.98l.22 2.52M954.93 18.06l.22 2.53"/></g><g fill="none" stroke="#000" stroke-width=".2"><path d="M972.72 14.88l.36 4.14M963.9 17.28l.22 2.52M971.87 16.58l.22 2.53M970.87 16.67l.22 2.52M969.87 16.75l.23 2.53M968.88 16.84l.22 2.53M967.85 16.52l.25 2.92M966.9 17.02l.2 2.52M965.9 17.1l.2 2.53M964.9 17.2l.2 2.52"/></g><g fill="none" stroke="#000" stroke-width=".2"><path d="M982.7 14l.35 4.15M973.86 16.4l.22 2.53M981.83 15.7l.22 2.53M980.84 15.8l.22 2.52M979.84 15.88l.22 2.53M978.84 15.97l.23 2.53M977.8 15.65l.27 2.92M976.85 16.14l.22 2.53M975.86 16.23l.22 2.53M974.86 16.32l.22 2.52"/></g><g fill="none" stroke="#000" stroke-width=".2"><path d="M992.65 13.13l.37 4.14M983.83 15.53l.22 2.53M991.8 14.84l.22 2.52M990.8 14.92l.22 2.53M989.8 15l.23 2.54M988.8 15.1l.23 2.52M987.78 14.78l.25 2.92M986.82 15.27l.22 2.53M985.82 15.36l.22 2.52M984.83 15.45l.22 2.52"/></g><g fill="none" stroke="#000" stroke-width=".2"><path d="M1002.62 12.26l.36 4.14M993.8 14.66l.22 2.53M1001.77 13.96l.22 2.53M1000.77 14.05l.22 2.53M999.77 14.14l.22 2.52M998.78 14.23l.22 2.52M997.75 13.9l.25 2.92M996.78 14.4l.23 2.53M995.8 14.5l.2 2.5M994.8 14.57l.2 2.53"/></g><g fill="none" stroke="#000" stroke-width=".2"><path d="M1012.6 11.4l.35 4.13M1003.76 13.8l.22 2.52M1011.73 13.1l.22 2.52M1010.74 13.18l.22 2.53M1009.74 13.27l.22 2.52M1008.74 13.35l.22 2.53M1007.7 13.03l.27 2.92M1006.75 13.53l.22 2.52M1005.75 13.62l.23 2.52M1004.76 13.7l.22 2.53"/></g><g fill="none" stroke="#000" stroke-width=".2"><path d="M1022.55 10.52l.37 4.14M1013.73 12.92l.22 2.52M1021.7 12.22l.22 2.53M1020.7 12.3l.22 2.53M1019.7 12.4l.23 2.52M1018.7 12.48l.23 2.53M1017.68 12.16l.25 2.92M1016.72 12.66l.22 2.52M1015.72 12.74l.22 2.53M1014.72 12.83l.23 2.53"/></g><g fill="none" stroke="#000" stroke-width=".2"><path d="M1023.7 12.05l.22 2.52M1031.66 11.35l.14 1.5M1030.67 11.44l.2 2.28M1029.67 11.52l.22 2.53M1028.68 11.6l.22 2.54M1027.64 11.3l.26 2.9M1026.68 11.78l.22 2.53M1025.7 11.87l.2 2.53M1024.7 11.96l.2 2.52"/></g><g fill="none" stroke="#000" stroke-width=".2"><path d="M802.8 24.03l-.36-4.14M793.7 23.2l-.15-1.6M801.66 22.5l-.22-2.52M800.67 22.6l-.23-2.53M799.67 22.68l-.22-2.53M798.67 22.77l-.22-2.53M797.7 23.26l-.24-2.92M796.68 22.94l-.22-2.52M795.68 23.03l-.22-2.53M794.7 23.12l-.2-2.3M812.77 23.16l-.37-4.14M803.66 22.33l-.22-2.52M811.63 21.63l-.22-2.52M810.63 21.72l-.22-2.52M809.64 21.8l-.23-2.52M808.64 21.9l-.22-2.53M807.68 22.4l-.26-2.93M806.65 22.07l-.22-2.53M805.65 22.16l-.22-2.53M804.65 22.24l-.22-2.52M822.73 22.3l-.36-4.15M813.62 21.46l-.22-2.53M821.6 20.76l-.23-2.52M820.6 20.85l-.22-2.53M819.6 20.94l-.22-2.53M818.6 21.02l-.22-2.52M817.64 21.52l-.25-2.92M816.6 21.2l-.2-2.53M815.62 21.28l-.22-2.52M814.62 21.37l-.22-2.52M832.7 21.42l-.36-4.14M823.6 20.6l-.23-2.54M831.56 19.9l-.22-2.54M830.56 19.98l-.22-2.53M829.57 20.06l-.22-2.52M828.57 20.15l-.22-2.52M827.6 20.65l-.24-2.92M826.58 20.33l-.22-2.53M825.58 20.4l-.22-2.5M824.6 20.5l-.23-2.53"/><g><path d="M842.66 20.55l-.36-4.14M833.56 19.72l-.22-2.53M841.53 19.02l-.22-2.53M840.53 19.1l-.22-2.52M839.53 19.2l-.22-2.53M838.54 19.28l-.22-2.53M837.58 19.77l-.26-2.9M836.55 19.45l-.23-2.52M835.55 19.54l-.22-2.52M834.55 19.63l-.22-2.53"/></g><g><path d="M852.63 19.67l-.36-4.14M843.52 18.84l-.22-2.52M851.5 18.15l-.23-2.53M850.5 18.23l-.22-2.52M849.5 18.32l-.22-2.53M848.5 18.4l-.22-2.52M847.54 18.9l-.25-2.92M846.5 18.58l-.2-2.52M845.52 18.67l-.23-2.53M844.52 18.76l-.22-2.53"/></g><g><path d="M862.6 18.8l-.37-4.14M853.5 17.97l-.23-2.52M861.46 17.27l-.22-2.52M860.46 17.36l-.22-2.52M859.47 17.45l-.22-2.53M858.47 17.54l-.22-2.53M857.5 18.03l-.25-2.92M856.48 17.7l-.22-2.52M855.48 17.8l-.22-2.53M854.5 17.88l-.24-2.52"/></g><g><path d="M872.56 17.93l-.36-4.14M863.46 17.1l-.23-2.53M871.43 16.4l-.23-2.52M870.43 16.5l-.22-2.54M869.43 16.58l-.22-2.53M868.44 16.66l-.22-2.52M867.48 17.16l-.26-2.92M866.44 16.84l-.22-2.53M865.45 16.93l-.22-2.53M864.45 17l-.22-2.5"/></g><g><path d="M882.53 17.06l-.36-4.14M873.42 16.23l-.22-2.53M881.4 15.53l-.23-2.53M880.4 15.62l-.23-2.53M879.4 15.7l-.22-2.52M878.4 15.8l-.22-2.53M877.44 16.3l-.25-2.93M876.4 15.97l-.2-2.53M875.4 16.05l-.2-2.52M874.42 16.14l-.22-2.53"/></g><g><path d="M892.5 16.2l-.37-4.15M883.4 15.36l-.23-2.53M891.36 14.66l-.22-2.53M890.36 14.75l-.22-2.53M889.37 14.83l-.23-2.52M888.37 14.92l-.22-2.53M887.4 15.4l-.25-2.9M886.38 15.1l-.22-2.53M885.38 15.18l-.22-2.52M884.38 15.27l-.22-2.53"/></g><g><path d="M902.46 15.3l-.36-4.13M893.35 14.48l-.22-2.52M901.32 13.8l-.22-2.54M900.33 13.87l-.22-2.52M899.33 13.96l-.22-2.52M898.34 14.05l-.23-2.53M897.38 14.54l-.26-2.92M896.34 14.22l-.22-2.52M895.35 14.3l-.22-2.52M894.35 14.4l-.22-2.53"/></g><g><path d="M912.43 14.44l-.36-4.14M903.32 13.6l-.22-2.5M911.3 12.9l-.23-2.5M910.3 13l-.23-2.52M909.3 13.1l-.22-2.54M908.3 13.18l-.22-2.53M907.34 13.67l-.25-2.92M906.3 13.35l-.2-2.53M905.3 13.44l-.2-2.53M904.32 13.52L904.1 11"/></g><g><path d="M922.4 13.57l-.37-4.14M913.3 12.74l-.23-2.53M921.26 12.04l-.22-2.52M920.26 12.13l-.22-2.53M919.26 12.22l-.22-2.53M918.27 12.3l-.22-2.52M917.3 12.8l-.25-2.92M916.28 12.48l-.23-2.53M915.28 12.57l-.22-2.53M914.28 12.65l-.22-2.52"/></g><g><path d="M932.36 12.7L932 8.56M923.25 11.87l-.22-2.53M931.22 11.17L931 8.65M930.23 11.26L930 8.73M929.23 11.35L929 8.82M928.23 11.43L928 8.9M927.27 11.93L927.02 9M926.24 11.6l-.22-2.52M925.25 11.7l-.23-2.53M924.25 11.78l-.22-2.52"/></g><g><path d="M942.33 11.83l-.37-4.14M933.22 11L933 8.47M941.2 10.3l-.23-2.53M940.2 10.4l-.23-2.54M939.2 10.47l-.22-2.52M938.2 10.56l-.22-2.53M937.24 11.06l-.26-2.92M936.2 10.73L936 8.2M935.2 10.82L935 8.3M934.22 10.9L934 8.4"/></g><g><path d="M952.3 10.95l-.37-4.14M943.2 10.12l-.23-2.52M951.16 9.43l-.23-2.53M950.16 9.5l-.22-2.5M949.16 9.6l-.22-2.52M948.17 9.7l-.22-2.54M947.2 10.18l-.25-2.9M946.17 9.86l-.22-2.52M945.18 9.95l-.22-2.53M944.18 10.04l-.22-2.53"/></g><g><path d="M962.26 10.08l-.36-4.14M953.15 9.25l-.22-2.52M961.12 8.55l-.22-2.52M960.13 8.64l-.23-2.52M959.13 8.73l-.22-2.53M958.13 8.82l-.22-2.53M957.17 9.3l-.25-2.9M956.14 9l-.22-2.53M955.14 9.08l-.22-2.53M954.15 9.16l-.22-2.52"/></g><g><path d="M972.23 9.2l-.37-4.13M963.12 8.38l-.22-2.53M971.1 7.68l-.23-2.52M970.1 7.77l-.23-2.53M969.1 7.86l-.23-2.53M968.1 7.94l-.22-2.52M967.14 8.44l-.26-2.92M966.1 8.12l-.2-2.53M965.1 8.2l-.2-2.52M964.1 8.3l-.2-2.53"/></g><g><path d="M982.2 8.34l-.37-4.14M973.08 7.5L972.86 5M981.05 6.8l-.22-2.5M980.06 6.9l-.22-2.53M979.06 7l-.22-2.54M978.07 7.07l-.23-2.52M977.1 7.57l-.25-2.92M976.07 7.25l-.22-2.53M975.08 7.33l-.22-2.52M974.08 7.42l-.22-2.52"/></g><g><path d="M992.16 7.47l-.36-4.14M983.05 6.64l-.22-2.53M991.02 5.94l-.22-2.53M990.02 6.03l-.22-2.53M989.03 6.1l-.22-2.5M988.03 6.2l-.22-2.53M987.07 6.7l-.25-2.92M986.04 6.37l-.22-2.52M985.04 6.46l-.22-2.52M984.05 6.55l-.22-2.53"/></g><g><path d="M1002.12 6.6l-.36-4.15M993.02 5.76l-.22-2.52M1001 5.07l-.23-2.53M1000 5.15l-.23-2.52M999 5.24l-.23-2.52M998 5.33l-.22-2.53M997.04 5.82l-.26-2.9M996 5.5l-.2-2.52M995 5.6l-.2-2.54M994 5.68l-.2-2.53"/></g><g><path d="M1012.1 5.72l-.37-4.14M1002.98 4.9l-.22-2.53M1010.95 4.2l-.22-2.53M1009.96 4.28l-.22-2.52M1008.96 4.37l-.22-2.53M1007.96 4.46l-.22-2.53M1007 4.95l-.25-2.92M1005.97 4.63l-.22-2.52M1004.98 4.72l-.22-2.53M1003.98 4.8l-.22-2.52"/></g><g><path d="M1022.06 4.85L1021.7.7M1012.95 4.02l-.22-2.53M1020.92 3.32L1020.7.8M1019.92 3.4L1019.7.9M1018.93 3.5l-.22-2.53M1017.93 3.58l-.22-2.52M1016.97 4.08l-.25-2.92M1015.94 3.76l-.22-2.53M1014.94 3.85l-.22-2.53M1013.95 3.93l-.22-2.52"/></g><g><path d="M1022.92 3.15l-.22-2.53M1030.9 2.45l-.15-1.5M1029.9 2.54l-.2-2.3M1028.9 2.63l-.23-2.53M1027.9 2.7l-.22-2.5M1026.94 3.2l-.26-2.9M1025.9 2.9l-.22-2.54M1024.9 2.97l-.2-2.52M1023.9 3.06l-.2-2.52"/></g></g></g></svg>